<svg xmlns="http://www.w3.org/2000/svg" viewBox="0 0 65.72 153.18"><defs><style>.cls-1{fill:#f2f9f9;}</style></defs><title>Asset 11</title><g id="Layer_2" data-name="Layer 2"><g id="Layer_2-2" data-name="Layer 2"><path class="cls-1" d="M31.56,16.23c-.26-.07-.85,0-.73.19l1,.13Z"/><path class="cls-1" d="M29.74,17.66A3.77,3.77,0,0,0,32,18c-1-.22-.56-.29-1.7-.53-.12-.2.32-.36.68-.34-.25-.06.21-.32-.41-.42-.76.29-.79.63-.15,1A1.63,1.63,0,0,1,29.74,17.66Z"/><path class="cls-1" d="M28.45,37.87l.12-.14A.31.31,0,0,0,28.45,37.87Z"/><path class="cls-1" d="M28.07,50.38c0-.09-.12-.13-.21-.14C27.93,50.33,28,50.4,28.07,50.38Z"/><path class="cls-1" d="M27,52.54a1.39,1.39,0,0,0,.06-.13C27,52.46,26.93,52.51,27,52.54Z"/><path class="cls-1" d="M28.45,37.87l-.3.34C28.47,38.22,28.38,38,28.45,37.87Z"/><path class="cls-1" d="M32.17,20.39a.57.57,0,0,0-.27-.17.76.76,0,0,1,.11.16Z"/><path class="cls-1" d="M27.58,32.37v-.1l-.4-.08Z"/><path class="cls-1" d="M27.37,28.15c0,.09.81.11,1.18.14-.35-.05-.52-.12-.58-.2A3.67,3.67,0,0,0,27.37,28.15Z"/><path class="cls-1" d="M28.76,21.41l-.11-.12Z"/><path class="cls-1" d="M27.43,35.4a1.68,1.68,0,0,0-.3.05A.94.94,0,0,0,27.43,35.4Z"/><path class="cls-1" d="M34.62,147.7l.07.13Z"/><path class="cls-1" d="M39.38,147.38l0,.08.47.09Z"/><path class="cls-1" d="M26,56.47l0,0C25.9,56.35,25.92,56.4,26,56.47Z"/><path class="cls-1" d="M27.07,92.32c.75-.43,1,.64,1.81,0C28.55,92.39,27.56,91.8,27.07,92.32Z"/><path class="cls-1" d="M32.06,20.5a.55.55,0,0,1,0,.18A.18.18,0,0,0,32.06,20.5Z"/><path class="cls-1" d="M28.88,92.33h0l.07-.07Z"/><path class="cls-1" d="M26.6,65.46a2.14,2.14,0,0,0,.37-.1A.92.92,0,0,0,26.6,65.46Z"/><path class="cls-1" d="M27.72,58.73l-.11.16A.32.32,0,0,0,27.72,58.73Z"/><path class="cls-1" d="M27.84,68.91c-.06.1-.18.13-.06.25l.1,0C27.76,69.08,27.71,69,27.84,68.91Z"/><path class="cls-1" d="M27.89,72.54l.17-.07,0-.12Z"/><path class="cls-1" d="M36.55,142.29a4.37,4.37,0,0,1-.75.23C36.4,142.42,36.65,142.92,36.55,142.29Z"/><path class="cls-1" d="M31.69,20.4c.22,0,.32.05.37.1a.61.61,0,0,0-.05-.12A1.52,1.52,0,0,0,31.69,20.4Z"/><path class="cls-1" d="M34.49,68.93l-.11.58A1.25,1.25,0,0,0,34.49,68.93Z"/><path class="cls-1" d="M34.91,116.47l.11.13S35,116.5,34.91,116.47Z"/><path class="cls-1" d="M34.52,71.21a1.57,1.57,0,0,0-.58.34,1.16,1.16,0,0,0,.22.06Z"/><path class="cls-1" d="M35.8,142.52Z"/><path class="cls-1" d="M38.13,146c0-.53-1.1-.14-1.75-.18-.37-.6.79-.38,1.33-.65-.33-.36-1.38-.57-1.36-.87a.82.82,0,0,1,.48-.06c-.92-.34-.16-1.25-1.3-1.65a1.43,1.43,0,0,1,.27-.09,8.73,8.73,0,0,1-1.51.21c0-.25-.74-.4,0-.55,0,.15.28.14.51.19l-.33-.23c1-.31.38.32,1.15.26-.38-.47-1.28-1-1-1.39,1-.16.41.87,1.28.29l-.35.62c1.57-.58-.08.36,1.6-.19.23-.79-.58-.82-.35-1.61-.57-.14-.83.12-1.4,0-1.1-1,2.49-1,1.08-1.76-.7-.16-2-.15-1.35-.78l1.17.12c.06-.76-1.69-.32-1-1.16.46.11.41.57.54.45.88-.57-.67-.32-.7-.71l1-.15c-.22-.79-1-1.63-1.25-2.51.31,0,.63.16.93-.06-.57-1.09,0-2.41.53-3.52l-.91-.37c0-.09.39-.2.57-.1.31-.44-.56,0-.92-.18-.07-.23.49-.34.76-.2-.79-.71-1.72-2-.82-2.88l.27.14c.32-.63-1.84-.59-1-1.2l.16.1c.31-1.35-.57-2.78.71-3.86-1.28-.13.5-1.34-1.27-1.34.84-.8,1.17-.6,1.7-1.7.07-.29-1.12-.37-1.32-.72l.92,0-1-.43,1.09-.31L35,116.6a.82.82,0,0,1-.67.29c-.44-.5.59-1.29,1.06-1.32l-.83-1.19c.37,0,.5.21.75.36-1-.61,1-.16.08-.72a1.83,1.83,0,0,1-.74,0,1.09,1.09,0,0,0,.26-1.49l.64.07c.12-.92-.39-1.9-.42-2.92-.28.38-1.39.34-1.51,0l1-.17c-.62-.16-.36.33-1.12,0,.1-.39,1.1-.31,1.43-.1l-.36-.45a4.34,4.34,0,0,1,.82.08c-.61-.17,1-.84-.11-1.07l.29,0a22.88,22.88,0,0,0-.47-2.29c-.85,0-.67-.32-1.36-.54.24-.62.88-1.32.78-2-.44-.5-.72-.13-1.23-.34.76-.07.66-.8,1.23-.44a4.71,4.71,0,0,0-.86-2.21c-.31.13-.44.27-.71.21s.31-.47.68-.46l.08,0c-1.19-1.21,2.14-3,.51-3.9l.08,0-.87-1c.12-.48.59.27,1-.1-1.31-1.07.14-1.76-.74-2.63,2.26-.76-.19-2.53,1.24-3.52l-.53.07c-.53-.24.3-.31.42-.5-.41,0-.48.28-.77.13-.67-2.09.73-4.36,1.18-6.53.13-.79-2.77-.39-1.51-1.41l1,.26c-1.21-1.57,0-3.26-1-4.8.23.09.52.09.52.24.72-.34,0-1.22-.57-1.21.07-.25.53-.07.83-.23.42-.34-.93-.81-.22-1,.12,0,.24.09.3.15-.36-.21.07-1-.76-.78.39-.6-.38-1.12.1-1.59-.93-.29.44-1-.88-1.08,1.36,0,1.08-1,.44-1.41.41.12.42-.33,1-.2,0-.42-.28-.8-1-.71,1.62-.81-1.32-1.54.75-2a15.1,15.1,0,0,1-1.58-3.52c1.35,0,.15,1.25,1.57,1.17-.58-1.06-1.74-1.65-1.43-2.72.18-.28.59.14.82.23-.57-1.06.09-2.07-.65-3a.65.65,0,0,1,.37.2c0-.19.19-.44-.43-.41l.17.18c-.89.32-1.87-.71-2.34-.73,1.76.28.43-1,2.66-.49a1,1,0,0,0-.82-.23c.12-.19.36-.25.83-.08-.35-.66-1-.41-1-1a5.33,5.33,0,0,1,.76.17c-.58-.29-1.17-.59-.92-1.11.18,0,.41,0,.41.12-.1-.89-1.57-1.48-1-2.46,1.3.26.42-.34,1.54-.41l-.34-.52-.54.22c0-.45-.81-.84-.45-1.24l.47.33L32.13,50l-.42.49c-.59-.45-1.42.08-1.11-.54.11.12,0-.45.66-.7h0c-.36-.22-.73-.45-.46-.79.36-.1,1.24.05,1.47,0-.93-.2-.27-1.06-1.27-1.32a2.6,2.6,0,0,0,.94,0l-.76-.18c.24-.21.36-.25.83-.22.13-.64-1.42.23-.82-.54.06.06.18,0,.29.15.31-.76-.5-1.45-.13-2.16,1.12-.23.28.6,1.23.35-.22-1-1.38-2.05-1.13-3l-.12.18c-1.59-.1.78-.74,0-1.22a1.77,1.77,0,0,0,.71.12c.25-.68-.41-1.36-.92-2.36l.41.12c.36-.4.19-1,.37-1.47-.41-.11-.34-.36-.93-.2,2.31-1.35-1.29-2.47.64-3.67,0,.14.36.33.36.22l-.39-1c-.69.09-.42.13-1,.35-.42-.11-.74-.39-.74-.63.46.43,1.11,0,1.5-.23-.22,0-.45,0-.67,0,1.23-.54-1.39-.06-.57-.78l.36,0c-.19-.26-.67-.49-.57-.78.8-.14.38.27,1,.28-.05-.4-1.53-.76-.74-1.14.23.17.23.41.46.58.93-.42.69-.46.84-.75l0,0L32,28.5l-.26.18c-2.09-.46-.39-1-1.77-1.66,1.31.63.75.1,1.66.13.25-.18.53-.45.79-.38-.74-.3.57-.54-.51-1,.29,0,0-.34.76-.28-.24-.41-.51.11-.88.08-1-.62,1.2-1.53-.19-2.41-.57-.78-1.56-.91-2.06-1.64.46-.25,1.07.19,1.07.19.42-.41.34-.71,0-1.08a1.26,1.26,0,0,0,.8-.13c-.08-.31-1.07-.19-.64-.59a6.21,6.21,0,0,1,1.17.28c-.27-.36-.82-.7-1.09-1.06.51-.11.78.21,1.11.33-.23-.41-.47-1.06-1.28-1.18l-.29.28c0-.15.69-.1.84,0,.64.35-.27.52-.56.55l-.19-.26c-1.72.3.29,1.05.19,1.58l-1.25-.2,1,.52c-.32.13-1,.22-1.2,0-.62.39.44.33-.24.67a.23.23,0,0,1-.22,0l.38.36c-.26-.07-.88.08-.7-.15-.71.68.95,1.05,0,1.32l-.08-.05c.43.91.92.07,2,.74l-2.25.51.91.07c0,.1-.1.29-.46.26.63.34.4-.07,1,.13-.83.47.41,1.25-1,1.38.7.15.53-.45,1,0-1.57.17.28.56-.44,1-.81-.12-.38-.52-1.1-.09,1.37.23-.29.82,0,1.17,1.09,0,.46.76.83,1.34-.37,0-.58,1.13-1,1.69h-.18c1.1.08.9.65,1.13,1.06a1.77,1.77,0,0,1-1.22-.29v.39a.89.89,0,0,1,.68.45l-.83-.08c0,.52,1,1,.44,1.7.77,0,2.13-.57,2.66.12-.42,0-1.13.08-1.3-.1.06.06.35.2.17.33l-.7-.27c-.3.31.59.15.52.39-.59,0-.42.19-.89.17-.06-.06.24-.22,0-.31a1.35,1.35,0,0,1-.9.73c.34,0,.8,0,.88.19.05.51-.71.19-1,.5.41.11,0,.45.88.44,0,.15-.42.19-.66.25.4.26.13,1.25,1.07.93l.06-.07s0,0,0,0h0c.89.87-.48,1.84-.09,2.7h-.29c.34.51.21,1.15.85,1.51,0,.15-.53.37-.89.31.23.4.57.44.08,1-.52-.39-.45.15-.38-.4-.25.52-.72.65.1,1.18-.77-.17-.95.41-.72.65l.53-.37a1.1,1.1,0,0,1,0,.76l-1-.11c-1.2,1.08,2.09,1.87.07,2.71.7.27.49-.58,1.31-.35-.13.49-1.56,1-1.56,1.18-.54.68,1.47.59,1.1,1.3.35-.1,1.3-.2,1.64.31-.12.49-1.48.63-1.77.33,0-.12.08-.18.2-.18a.46.46,0,0,0-.67-.15l.36,0c-.36.25-.32.92-.9.78.34.36.58.14.76-.14-.5.64,0,1-.34,1.63.2-.11.62-.21.61-.11-.43,1,.68.4.85,1-.54.37-1.3-.1-.84.53-.36.4-.94.1-1.23,0,.69.57-.44,1.1-.56,1.44l-.29-.3a.6.6,0,0,1,.17.49l.71-.2c-.12.19-.12.34-.42.34.47.18,1.18-.16,1.83.2-.36.24.39.72-.55.82.31-.76-1,.11-1.11-.53.12.12.11.27,0,.46a.31.31,0,0,1-.25-.07c-.84.74,1.07.31,1.06,1.06-.53-.08-1,.2-.89.32,0-.31.88-.17,1.3.1-.41.5.31.52.27.78l.19-.3c.53.09.46.33.64.67-.42,0-.29-.3-.47-.18.94.36-1,.87-.32,1.37-.36.25-1,.05-1.25.26.7.57-.72.65-.14,1.25.71-.19.54-.22,1.24.2l-.51-1,1,.63c0-.3-.45-.63-.33-.82.58.3.4.27,1,.11-1.07.44.63.82-.09,1.31l-1.77,0c-.78.74.93,1.27.5,2.22l.3-.31c.7.12.1.58.39.88a2.32,2.32,0,0,0-1.17.32c.44,0,0,.69,1.15.75l-.77.43c-.31.77,1.7.84,1.51,1.57-.65-.21-1.06.13-1.53-.35,0,.25-.11.47.3.46-.37.15.81.66.25.9.26.1.88.12.83.39a.72.72,0,0,1-.29,0c.29,0,.41.42,1.06.17-1.84.78.16,2.09-1.42,2.78a6.9,6.9,0,0,1,.46,1.64c-.18,0-.3,0-.24-.08-.54.67,1.71.37,1.1,1.14-.95.41-.52-.39-.88-.14-1.95.14.28.91-.85,1.44l-.12-.12c-.66.4.75.94.62,1.58a.85.85,0,0,0-.29,0,3.11,3.11,0,0,1,1.62,1.84c-.77-.18-.41-.27-1.18-.14.11.27,1.24-.1,1.47.44a3.76,3.76,0,0,1-1.61.66l-.05-.52c-1.06.29.05.67-.13,1l-.47,0c.16.79,1.34.78,1.27,1.63l.35-.09c1.17.44-.65.4.22.85l-1.18.16a7.41,7.41,0,0,1,1.39,1.6A6.18,6.18,0,0,1,27.69,84c0,.31.1,1,.69,1.18-.12-.12-.41-.27-.23-.39.94.35,1.4.84,1.39,1.44-2.3-.06-.56,1.6-2.33,2.07.86,1.06-.34,2.14-.19,3.39,1.78-.48.06.36,1.89.25.12.29.09.4,0,.43l-1.08.92c-.53.22-.41-.27-.82-.24-.13.66-.77.29-1.25.74.66-.11,1,.2.71.57l.83-.54c1,.87-1.52.82-.52,1.7l-.59-.27c.36.45,0,1.71,1.53,2.12-.21.08-.7.21-.84,0-.19,1.11,1.65,2.4.77,3.29l-.45-.06c.14.2.86.32.41.6-.18,0-.45-.07-.47,0,.16.1.81.52.56.8l-.52-.22c-.54,1.1,1.29,1.61,1.64,2.5a2,2,0,0,0-1.92,1.34H26.7c-.12,1.26,1.17,2.08,1.74,3.22-1.4.78-.5,2.46-1.25,3.66a1.24,1.24,0,0,1,1.17.18c-.26.28.95.71-.26.72l0-.1c-1.18.26-.84.8-.86,1.24h1.59c-2.25,1.25,1,2.95-1.05,3.67.41.25.42.6.83.85l-.85,0a3.48,3.48,0,0,0,0,2.1l-.62-.17c0,.54,2.48.56,2.56,1l-1.26.21c.06.93-1,1.92.19,2.78-.18,0-.55,0-.61-.16,0,.44-.77,1.74,1,1.49-1.13.07-.06,1,.47,1.43l-.84,0c1.09.36,1.38.36,1.71.94-.1.14-.66.16-.46,0-.41.49.81.32.4.91l-.55-.18c0,.48.25.42.89.65.35.29-.16.92-.91,1,.46,0,1.09.26.89.56a.82.82,0,0,1-.56-.09c-.52.84,1.05,1.14.26,1.74a1.18,1.18,0,0,0-.49.12c0-.64,0-1.15.06-1.11-.77.05-.88.57-2,.22.6.38,1.9,1,1.57,1.54a1,1,0,0,1-.26.08l-.09-.05c-.07.13,0,.23.15.31a.78.78,0,0,0-.21.44c-.63.09-.31.61-.32.87.84-.08.73.27,1.4-.09-.06,0-.1,0-.15-.21s0-.08-.09-.11l.07,0c0-.17-.07-.39-.09-.64.44.18.81.37.36.68l1.38.27c-1.15.43-1.74,1.15-2.46,1.29.52.75.44,1.83,2.05,2.21.22.21-.43.29-.67.39-.17-.12-.16-.27-.39-.32.44.41.25,1.31,1.37,1.33-.46.6-1-.24-.8.52l-.35-.08c-1.65,1.67,3,2.24.9,4.13a.65.65,0,0,1,.37-.24,4.41,4.41,0,0,0,.21,3,5.94,5.94,0,0,1,.29,1.5,2.81,2.81,0,0,1-.05.81,6.09,6.09,0,0,1-.22,1c.05.65.32,1,.67,1.08a3.48,3.48,0,0,0,1.14.07,5,5,0,0,0-.29.9,2.59,2.59,0,0,0,1.55-.51,1.21,1.21,0,0,1,.93,0c.32.1.63.25,1,.36.7.23,1.52.18,1.6-.82l-.51-.38c.45-.19.76-1.19,1.22-.67-.05-.12-.38-.53,0-.46l.37.29a6.16,6.16,0,0,0,0-1.36c.35-.28.76-.05,1.16.13s.81.31,1.17-.49a2,2,0,0,0-.53-1.18c-.32-.36-.68-.57-.85-.51s-.34.43-.81.33l-.2-.41a19.88,19.88,0,0,0-2-.36c-.65-.06-1.24-.06-1.74-.07a4.61,4.61,0,0,1,.75.44,4.83,4.83,0,0,1-.64-.22.33.33,0,0,1,0-.1c-.63-.15-.08,0,.23.26-.34-.14-.57-.24-.7-.28a5,5,0,0,1,1,.91,5.31,5.31,0,0,0-1.15-.77c.42.48,1.07.63,1.24,1.07-.61-.26-.94-.66-.66-.16a2.19,2.19,0,0,1-.5-.56c.22.39-.1.35.32,1-.59-.51-.26.42-.86-.75.08.13.16.4.26.59a1.59,1.59,0,0,1,.12.34l.12.41c-.15-.39.07,0,.08.52a1.07,1.07,0,0,1,0,.48c0,.05,0,.09,0,.07a.18.18,0,0,1,0,.09s0,0,0-.05h0l0-.06a.69.69,0,0,1,.24-.18l.06,0h0l-1,.6h0l.06,0,.24-.16a7.38,7.38,0,0,1,1.05-.53,7.24,7.24,0,0,1,1.12-.34l.14,0s0,0,0,0v0s0,0,0,0a.82.82,0,0,0-.41-.2c.11,0,.35,0,.28,0a1.14,1.14,0,0,1,.29-.32,4.71,4.71,0,0,0,.42-.33c-1.17.19-1.51-.26-2.27-.46,1.07-.57,1.4.06,2.46-.23-.94.16-1-.56-1.8-.32a2.7,2.7,0,0,1,1.25-.61c-1.47.12-.28-.26-1.21-.43.67-.54,1.35-.26.86-.73C37.57,145.61,38.13,146,38.13,146Zm-3.5-12.4h0l.06.26Zm-.08-1.07a1.76,1.76,0,0,0,0,.46c-.29.06-.59,0-.59-.07C34.16,133,34.31,132.72,34.55,132.55Zm-5.69,2.63c-.13-.16,0-.23.2-.27a1.09,1.09,0,0,0,.12.3h.1A1.71,1.71,0,0,1,28.86,135.18Z"/><path class="cls-1" d="M30,135.42s.06,0,.07.06l.18-.11-.27,0Z"/><path class="cls-1" d="M28.59,37.71l0,0,.12,0Z"/><polygon class="cls-1" points="35.39 117.65 35.17 117.66 35.36 117.75 35.39 117.65"/><path class="cls-1" d="M31.41,31.72a.42.42,0,0,0,.21-.08A.56.56,0,0,0,31.41,31.72Z"/><path class="cls-1" d="M31.56,29.16l.3-.37A1.33,1.33,0,0,0,31.56,29.16Z"/><path class="cls-1" d="M32,27.18l-.36,0h0Z"/><path class="cls-1" d="M33.36,58.48a.11.11,0,0,0,0,.07C33.56,58.73,33.49,58.61,33.36,58.48Z"/><path class="cls-1" d="M31.26,49.2a2,2,0,0,1,.41.29C31.73,49.32,31.74,49.19,31.26,49.2Z"/><path class="cls-1" d="M34.51,68.86h0s0,0,0,.07Z"/><path class="cls-1" d="M31.66,49.92a.28.28,0,0,0,0-.43C31.61,49.63,31.53,49.79,31.66,49.92Z"/><path class="cls-1" d="M32.22,18.63l0-.09h-.14Z"/><path class="cls-1" d="M32.12,18.53l-.1-.1S32,18.52,32.12,18.53Z"/><path class="cls-1" d="M31.8,18.21l.22.22C32,18.35,32.05,18.25,31.8,18.21Z"/><path class="cls-1" d="M31.87,21.25l.3,0Z"/><path class="cls-1" d="M32,22c.06-.19.64-.49.45-.75l-.25,0C32.63,21.39,31.45,21.87,32,22Z"/><path class="cls-1" d="M28.23,25.42l.24-.67c-.33.13-.76.29-.85,0C26.66,25.59,28.35,24.55,28.23,25.42Z"/><path class="cls-1" d="M27.79,27.49c-.16-.35-.48,0-.66,0C27.43,27.71,27.5,27.76,27.79,27.49Z"/><path class="cls-1" d="M28,42.37l-.77,0C27.32,42.62,27.51,42.35,28,42.37Z"/><polygon class="cls-1" points="31.98 45.13 32.45 44.86 31.75 44.74 31.98 45.13"/><polygon class="cls-1" points="26.54 46.92 26.43 46.81 26.71 47.26 26.54 46.92"/><path class="cls-1" d="M27.14,71.91l.94-.1C27.91,71.62,26.85,71.61,27.14,71.91Z"/><path class="cls-1" d="M28.24,82.68c-.47.12-.77.43-.3.61C28,83.05,28.37,82.8,28.24,82.68Z"/><polygon class="cls-1" points="27.68 115.14 27.36 114.94 27.64 115.33 27.68 115.14"/><path class="cls-1" d="M34.56,17.23c-.26-.06-.85,0-.73.17l1,.12Z"/><path class="cls-1" d="M32.75,18.53a4,4,0,0,0,2.25.28c-1-.19-.56-.25-1.71-.46-.12-.19.31-.34.68-.32-.26-.06.21-.29-.42-.38-.76.26-.78.57-.14.88A1.83,1.83,0,0,1,32.75,18.53Z"/><path class="cls-1" d="M31.84,36.94l.11-.12A.24.24,0,0,0,31.84,36.94Z"/><path class="cls-1" d="M31.85,48.35c0-.09-.12-.12-.21-.12C31.71,48.31,31.77,48.37,31.85,48.35Z"/><path class="cls-1" d="M30.87,50.35a.67.67,0,0,0,.06-.12C30.84,50.28,30.79,50.33,30.87,50.35Z"/><path class="cls-1" d="M31.84,36.94l-.3.32C31.87,37.27,31.78,37.1,31.84,36.94Z"/><path class="cls-1" d="M35.21,21a.68.68,0,0,0-.26-.16l.11.15Z"/><path class="cls-1" d="M30.82,32v-.09a2.12,2.12,0,0,0-.4-.06Z"/><path class="cls-1" d="M30.53,28.11c0,.09.81.09,1.18.11a1.09,1.09,0,0,1-.59-.17A3.66,3.66,0,0,0,30.53,28.11Z"/><path class="cls-1" d="M31.82,22l-.12-.1S31.77,21.92,31.82,22Z"/><path class="cls-1" d="M30.75,34.73l-.3,0A1.36,1.36,0,0,0,30.75,34.73Z"/><path class="cls-1" d="M43,142h-.15C42.89,142,43,142,43,142Z"/><path class="cls-1" d="M38.9,146.56l0-.06h-.47Z"/><path class="cls-1" d="M30,54l0,0C29.91,53.86,29.93,53.91,30,54Z"/><path class="cls-1" d="M32.64,86.52c.73-.42,1,.54,1.8-.07C34.12,86.52,33.1,86,32.64,86.52Z"/><path class="cls-1" d="M35.1,21.1a.88.88,0,0,1,0,.16C35.14,21.19,35.14,21.14,35.1,21.1Z"/><path class="cls-1" d="M34.44,86.45h0l.07-.06Z"/><path class="cls-1" d="M31,62.12a1.42,1.42,0,0,0,.36-.1A1.33,1.33,0,0,0,31,62.12Z"/><path class="cls-1" d="M31.81,56l-.1.15C31.78,56.05,31.81,56,31.81,56Z"/><path class="cls-1" d="M32.36,65.22c-.06.08-.17.12,0,.22l.1,0C32.29,65.37,32.23,65.32,32.36,65.22Z"/><path class="cls-1" d="M32.57,68.51l.17-.07-.05-.1Z"/><path class="cls-1" d="M42.22,131.94a4.82,4.82,0,0,1-.75.18C42.06,132.05,42.29,132.53,42.22,131.94Z"/><path class="cls-1" d="M34.74,21c.21,0,.32,0,.36.09a.49.49,0,0,0,0-.11A1.42,1.42,0,0,0,34.74,21Z"/><path class="cls-1" d="M39,64.94l-.09.53A1.14,1.14,0,0,0,39,64.94Z"/><path class="cls-1" d="M40.91,108.26l.11.11S41,108.28,40.91,108.26Z"/><path class="cls-1" d="M39.14,67a1.57,1.57,0,0,0-.57.33,1.14,1.14,0,0,0,.23,0Z"/><path class="cls-1" d="M41.46,132.12h0Z"/><path class="cls-1" d="M43.58,135.51c0-.5-1.09-.19-1.73-.28-.33-.58.81-.3,1.37-.53-.31-.36-1.34-.61-1.3-.89a.9.9,0,0,1,.47,0c-.89-.36-.08-1.17-1.2-1.59l.27-.07a8.89,8.89,0,0,1-1.52.13c0-.22-.71-.38,0-.5,0,.14.27.14.5.2l-.32-.23c1-.25.37.31,1.14.28-.36-.44-1.23-.94-1-1.31,1-.11.38.81,1.27.31l-.37.55c1.59-.48-.1.34,1.6-.11.27-.73-.55-.78-.28-1.51-.58-.13-.84.09-1.41-.05-1.06-1,2.52-.9,1.13-1.59-.68-.16-2-.18-1.32-.74l1.16.13c.08-.7-1.67-.32-.93-1.08.46.11.41.52.54.41.89-.51-.67-.3-.68-.66l1-.12c-.19-.73-1-1.51-1.19-2.31.31,0,.63.15.94-.06-.55-1,0-2.2.57-3.22l-.9-.33c0-.09.39-.19.56-.1.32-.4-.56,0-.91-.16-.07-.22.49-.32.76-.19-.78-.65-1.71-1.86-.8-2.63l.27.13c.33-.58-1.84-.54-1-1.1l.16.09c.32-1.23-.56-2.53.71-3.53-1.28-.11.5-1.23-1.27-1.21.83-.74,1.16-.56,1.69-1.57.07-.27-1.12-.33-1.32-.64l.92-.06-1-.38,1.09-.3-.26-.29a.87.87,0,0,1-.66.28c-.45-.45.57-1.19,1-1.23l-.85-1.07c.37,0,.51.18.76.32-1-.54,1-.17.07-.66a2.28,2.28,0,0,1-.74,0,.94.94,0,0,0,.24-1.37l.64.05c.12-.84-.41-1.73-.45-2.66-.28.35-1.38.34-1.51.08l1-.17c-.61-.14-.35.31-1.11,0,.09-.35,1.1-.3,1.43-.12l-.37-.4a5,5,0,0,1,.82,0c-.61-.14.94-.79-.13-1l.29,0a18.79,18.79,0,0,0-.5-2.08c-.85,0-.68-.27-1.37-.45.23-.58.85-1.23.74-1.9-.45-.44-.72-.09-1.23-.27.76-.09.65-.75,1.22-.44a4.22,4.22,0,0,0-.9-2c-.31.13-.44.26-.71.21s.3-.44.67-.43l.08,0c-1.22-1.07,2.07-2.77.42-3.58l.08,0-.9-.89c.11-.44.6.22,1-.13-1.34-.93.08-1.62-.82-2.4,2.22-.79-.31-2.28,1.08-3.25l-.53.08c-.54-.19.29-.29.4-.46-.41,0-.46.27-.76.15-.77-1.87.52-4,.88-6,.09-.72-2.78-.23-1.57-1.21l1,.19c-1.27-1.37-.14-3-1.24-4.31.23.07.53,0,.54.19.7-.34,0-1.11-.63-1.07.06-.23.53-.09.82-.24.41-.33-1-.7-.26-.9.12,0,.24.07.3.12-.36-.18,0-.92-.79-.68.37-.55-.43-1,0-1.45-.94-.22.39-.93-.92-.94,1.35-.05,1-1,.37-1.3.42.09.41-.31,1-.22,0-.38-.31-.72-1-.61,1.58-.8-1.39-1.33.66-1.86a13.12,13.12,0,0,1-1.73-3.12c1.35,0,.2,1.12,1.62,1-.62-.94-1.81-1.43-1.54-2.41.17-.26.59.11.83.18-.62-.94,0-1.89-.78-2.71a.66.66,0,0,1,.38.17c0-.17.18-.41-.44-.36l.18.16c-.88.32-1.9-.57-2.37-.57,1.77.19.39-.88,2.64-.55a1.1,1.1,0,0,0-.83-.18c.11-.17.35-.24.82-.1-.36-.59-1-.33-1-.89a5.16,5.16,0,0,1,.77.13c-.6-.25-1.19-.5-1-1,.18,0,.41-.05.42.09C36.5,51.47,35,51,35.53,50.07c1.3.19.4-.32,1.52-.43l-.36-.45-.53.22c0-.42-.84-.74-.49-1.12l.47.29-.25-.77-.4.46c-.6-.39-1.41.12-1.13-.44.12.1,0-.42.64-.67h0c-.36-.19-.75-.38-.49-.7.36-.1,1.24,0,1.48-.06-1-.16-.31-1-1.32-1.17a2.74,2.74,0,0,0,.94,0l-.77-.13c.24-.21.35-.24.82-.24.11-.58-1.41.26-.83-.46.06,0,.18,0,.3.13.28-.71-.55-1.31-.21-2,1.12-.24.3.54,1.24.28-.25-.9-1.45-1.82-1.22-2.72l-.12.17c-1.59,0,.76-.69,0-1.1a1.79,1.79,0,0,0,.71.08c.23-.62-.45-1.22-1-2.11l.41.09c.35-.37.17-.94.34-1.34-.41-.09-.35-.32-.94-.16,2.27-1.28-1.35-2.21.54-3.34,0,.12.37.28.37.18l-.41-.88c-.69.1-.42.14-1,.35-.41-.1-.74-.34-.75-.56.47.38,1.11-.05,1.49-.24-.21,0-.44,0-.66,0,1.22-.52-1.4,0-.59-.7l.37,0c-.2-.23-.69-.43-.59-.7.79-.13.38.25,1,.24-.06-.36-1.54-.66-.76-1,.23.14.24.37.47.51.93-.39.69-.42.83-.69l0,0,.4-.63-.25.17c-2.1-.38-.41-.91-1.8-1.47,1.31.55.75.07,1.66.08.24-.16.52-.41.78-.35-.75-.26.56-.5-.53-.87.29,0,0-.31.75-.27-.24-.37-.5.1-.87.09-1-.55,1.17-1.4-.22-2.19-.59-.7-1.58-.81-2.09-1.46a1.24,1.24,0,0,1,1.07.15c.43-.37.34-.64,0-1a1.31,1.31,0,0,0,.8-.12c-.08-.28-1.07-.16-.65-.53a7.17,7.17,0,0,1,1.19.24c-.28-.31-.84-.62-1.11-.95.51-.1.78.19,1.12.29a1.75,1.75,0,0,0-1.3-1.06l-.28.25c0-.13.69-.08.84,0,.64.31-.27.48-.56.5l-.2-.23c-1.71.28.3,1,.22,1.43l-1.26-.17,1,.47c-.32.11-1,.2-1.21,0-.6.36.45.29-.23.61a.24.24,0,0,1-.21,0l.38.33c-.27-.06-.88.08-.71-.13-.7.62,1,1,0,1.2l-.08-.05c.44.83.92.06,2,.65l-2.25.5.92.05c0,.09-.1.26-.47.24.64.31.4-.06,1,.1-.82.45.43,1.14-1,1.28.7.13.53-.42,1,0-1.57.18.28.51-.42.91-.82-.09-.4-.46-1.11-.06,1.38.19-.27.76,0,1.07,1.09,0,.48.68.86,1.21-.36,0-.56,1-.93,1.55h-.19c1.11.06.92.58,1.16.95a1.86,1.86,0,0,1-1.22-.24v.36a.85.85,0,0,1,.68.4l-.82-.06c.06.47,1,.91.48,1.54.77,0,2.12-.57,2.66,0-.41,0-1.12.09-1.3-.07.06.05.35.18.18.3L32,33.8c-.29.29.59.12.54.35-.6,0-.42.18-.89.17-.06-.06.23-.21,0-.28a1.35,1.35,0,0,1-.88.69c.34,0,.8,0,.88.14.07.47-.7.19-1,.48.41.1,0,.42.89.39,0,.13-.41.18-.65.24.4.23.16,1.14,1.09.82l.06-.07,0,0h0c.92.76-.43,1.68,0,2.46h-.3c.36.46.25,1,.9,1.36,0,.13-.52.35-.88.31.24.35.58.37.11.92-.53-.34-.45.15-.39-.35-.23.48-.7.61.13,1.07-.76-.13-.93.4-.7.62l.53-.36a.94.94,0,0,1,0,.7l-1-.08c-1.16,1,2.15,1.64.16,2.47.71.22.47-.55,1.29-.36-.11.45-1.52,1-1.51,1.12-.52.64,1.48.49,1.14,1.15.35-.1,1.29-.23,1.65.23-.11.45-1.46.62-1.76.36,0-.11.08-.17.2-.17a.5.5,0,0,0-.68-.12l.36,0c-.35.24-.28.85-.87.74.35.31.59.11.76-.15-.48.6,0,.89-.28,1.49.19-.1.6-.21.61-.12-.4.88.69.34.88.91-.52.36-1.3,0-.81.52-.35.37-.94.12-1.24,0,.72.49-.39,1-.5,1.33l-.31-.26a.49.49,0,0,1,.19.43l.71-.2c-.12.17-.11.31-.41.33.48.14,1.17-.2,1.83.1-.35.24.43.65-.51.78.28-.71-.95.13-1.13-.45.12.11.12.25,0,.42A.31.31,0,0,1,30,54c-.8.7,1.09.24,1.1.92-.53,0-1,.22-.88.33,0-.28.88-.19,1.3,0-.38.47.34.46.3.7l.18-.28c.54.06.48.28.67.58-.41.05-.3-.26-.48-.14,1,.28-.92.82-.27,1.26-.34.24-1,.08-1.23.29.73.49-.69.62-.09,1.14.71-.2.53-.22,1.25.13l-.55-.89,1.07.53c0-.28-.48-.56-.37-.73.6.25.42.23,1,.06-1.05.44.67.71,0,1.19l-1.77.1c-.74.7,1,1.11.59,2l.29-.29c.71.07.13.52.43.78a2.57,2.57,0,0,0-1.16.34c.44,0,0,.63,1.19.63l-.76.43c-.28.71,1.73.69,1.57,1.36-.65-.16-1.05.17-1.54-.25,0,.23-.09.43.32.41-.36.15.84.56.29.8.26.08.88.07.85.32a.81.81,0,0,1-.29,0c.29,0,.42.37,1.06.11-1.8.79.25,1.9-1.29,2.59a5.83,5.83,0,0,1,.52,1.48c-.18,0-.29,0-.24-.07-.51.64,1.73.26,1.15,1-.93.41-.54-.33-.88-.09-1.94.22.31.81-.79,1.35L32.38,72c-.64.4.79.82.69,1.41a1.06,1.06,0,0,0-.3,0A3,3,0,0,1,34.48,75c-.78-.12-.42-.23-1.19-.07.13.24,1.24-.15,1.49.33a3.94,3.94,0,0,1-1.57.67l-.08-.46c-1.05.3.08.6-.09.86h-.47c.2.71,1.37.64,1.34,1.42l.35-.1c1.19.35-.64.4.26.76l-1.18.21A6.54,6.54,0,0,1,34.8,80a6.27,6.27,0,0,1-1.92-1.12c0,.28.15.94.74,1-.12-.1-.42-.22-.25-.34,1,.28,1.44.69,1.46,1.25-2.3.05-.49,1.47-2.24,2,.91.92-.24,2,0,3.09,1.75-.52.07.32,1.9.14.13.25.11.36,0,.39l-1,.87c-.52.22-.42-.23-.83-.18-.11.59-.76.3-1.22.71.65-.12,1,.14.72.49l.81-.52c1,.75-1.49.8-.47,1.55l-.59-.22c.36.4.08,1.54,1.58,1.86-.21.09-.7.22-.85,0-.15,1,1.71,2.13.85,3L33,94c.14.17.86.27.43.53-.19,0-.46,0-.48,0,.16.09.82.45.57.71L33,95.07c-.53,1,1.32,1.42,1.68,2.22a2,2,0,0,0-1.89,1.27h-.19c-.09,1.14,1.21,1.86,1.79,2.88-1.39.74-.46,2.24-1.2,3.34a1.4,1.4,0,0,1,1.17.14c-.25.27,1,.63-.26.66l0-.09c-1.17.26-.83.75-.84,1.14l1.59,0c-2.24,1.17,1,2.66-1,3.34.41.23.42.54.83.76l-.85,0a2.9,2.9,0,0,0,0,1.89l-.62-.14c0,.49,2.48.48,2.56.92l-1.26.2c.07.84-1,1.75.19,2.52-.18,0-.55,0-.61-.14,0,.39-.78,1.57,1,1.33-1.13.07-.06.88.46,1.3l-.84,0c1.09.32,1.38.32,1.7.84-.1.13-.66.15-.45,0-.42.44.8.29.38.82l-.54-.16c0,.43.24.38.88.59.35.26-.17.84-.92.94.46,0,1.09.24.88.51A.86.86,0,0,1,36,122c-.53.76,1,1,.23,1.57a1.45,1.45,0,0,0-.49.11c0-.58,0-1,.07-1-.77,0-.88.51-2,.19.6.34,1.89.92,1.55,1.39a1.15,1.15,0,0,1-.26.08l-.09-.05c-.08.11,0,.2.13.29-.12.15-.21.24-.21.38-.64.09-.32.55-.34.79.84-.06.72.25,1.4-.07-.06,0-.1,0-.14-.19s0-.08-.09-.1l.07,0a5.43,5.43,0,0,1-.08-.58c.43.17.8.34.35.62.54.09,1.11.2,1.37.26-1.16.37-1.77,1-2.49,1.13.51.69.39,1.66,2,2,.21.19-.44.25-.69.34-.16-.11-.14-.25-.38-.31.43.39.22,1.19,1.33,1.24-.48.53-1-.24-.82.45l-.34-.08c-1.71,1.44,2.9,2.12.69,3.74a.64.64,0,0,1,.38-.2c-.94,1.77,1.08,3.55-.46,5.32-.3.5.4.53.95.81l-.9.13,1.05.48c.79.7-2.18,1.31-.71,2.18l.6-.13c-.1.33.39,1-.31,1,.11,0,.63.1.32.23l-.47,0,.83.79c-.33.63-1.89-.06-2,.86a2.63,2.63,0,0,0,1.71.8c0-.14.29-.36.77-.38l.25.31c1.4,0,2.83.24,3.79-.55l-.87-.51.68-.19,0,.45c.63-.27.06-.42-.33-.59a1.54,1.54,0,0,0,.74-.24l-1.35-.5c.55-.07,1.09.21,1.39-.15-.63-.23-1.22.27-1.64-.13.63-.27,1.15-.21.6-.49a1,1,0,0,1,.75.12c-.44-.26-.2-.7-.95-.82.78-.29-.23-.9,1.1-.91-.32-.07-1.05-.44-1.12-.68,1.6.4.07-.92,1.77-.85-1.43-.29-.66-1.18-1.47-1.74.12,0,.35.08.28.14.11-.34.53-.45.79-.67-1.17,0-1.46-.51-2.2-.76,1.12-.44,1.39.2,2.48,0-1,.05-1-.68-1.77-.51a2.81,2.81,0,0,1,1.3-.47c-1.47,0-.26-.28-1.17-.51.71-.47,1.37-.16.91-.64C43.05,135.09,43.58,135.51,43.58,135.51Zm-3-11.58h0l.06.24Zm-.06-1a1.92,1.92,0,0,0,0,.42c-.29,0-.59,0-.58-.07C40.11,123.34,40.27,123.11,40.5,123Zm-5.74,2.34c-.13-.15,0-.21.21-.23a1.23,1.23,0,0,0,.11.26h.11A1.74,1.74,0,0,1,34.76,125.29Z"/><path class="cls-1" d="M35.88,125.52s0,0,.06.06l.19-.1-.27,0Z"/><path class="cls-1" d="M32,36.8l0,0,.12,0Z"/><polygon class="cls-1" points="41.39 109.33 41.18 109.34 41.37 109.42 41.39 109.33"/><path class="cls-1" d="M34.63,31.29a.58.58,0,0,0,.22-.08A.66.66,0,0,0,34.63,31.29Z"/><path class="cls-1" d="M34.74,29l.29-.34A1.07,1.07,0,0,0,34.74,29Z"/><path class="cls-1" d="M35.09,27.16l-.36,0h0Z"/><path class="cls-1" d="M37.44,55.51l0,.06C37.65,55.72,37.58,55.62,37.44,55.51Z"/><path class="cls-1" d="M35,47.16a1.93,1.93,0,0,1,.41.25C35.47,47.26,35.48,47.14,35,47.16Z"/><path class="cls-1" d="M39,64.88h0a.13.13,0,0,1,0,.06Z"/><path class="cls-1" d="M35.42,47.8c.16-.16.12-.28,0-.39C35.36,47.54,35.29,47.69,35.42,47.8Z"/><path class="cls-1" d="M35.25,19.41l0-.09h-.14Z"/><path class="cls-1" d="M35.14,19.31l-.1-.09S35.05,19.3,35.14,19.31Z"/><path class="cls-1" d="M34.83,19l.21.2C35,19.15,35.07,19.06,34.83,19Z"/><path class="cls-1" d="M34.92,21.78l.31,0Z"/><path class="cls-1" d="M35,22.5c.06-.18.64-.45.44-.69h-.24C35.68,21.9,34.51,22.35,35,22.5Z"/><path class="cls-1" d="M31.33,25.62l.23-.62c-.33.12-.76.27-.85,0C29.77,25.79,31.44,24.82,31.33,25.62Z"/><path class="cls-1" d="M30.93,27.51c-.16-.32-.47,0-.66,0C30.58,27.71,30.65,27.76,30.93,27.51Z"/><path class="cls-1" d="M31.49,41.06h-.77C30.84,41.31,31,41.05,31.49,41.06Z"/><polygon class="cls-1" points="35.58 43.45 36.05 43.18 35.34 43.1 35.58 43.45"/><polygon class="cls-1" points="30.2 45.25 30.09 45.15 30.39 45.55 30.2 45.25"/><path class="cls-1" d="M31.79,68l.94-.13C32.55,67.68,31.49,67.71,31.79,68Z"/><path class="cls-1" d="M33.37,77.71c-.46.14-.75.43-.27.57C33.15,78.06,33.5,77.81,33.37,77.71Z"/><polygon class="cls-1" points="33.68 107.17 33.35 106.99 33.63 107.34 33.68 107.17"/><path class="cls-1" d="M30.56,10.73c-.2-.16-.69-.48-.63-.36l.8.6Z"/><path class="cls-1" d="M28.8,10.05a11.67,11.67,0,0,0,1.79,1.35c-.75-.59-.41-.38-1.3-1.09-.06-.12.32.09.62.3-.2-.16.24,0-.26-.34-.68-.36-.77-.29-.3.16A5.24,5.24,0,0,1,28.8,10.05Z"/><path class="cls-1" d="M24,14.29l.12,0C24.09,14.29,24.06,14.28,24,14.29Z"/><path class="cls-1" d="M21.42,17.15s-.08-.11-.15-.16A.56.56,0,0,0,21.42,17.15Z"/><path class="cls-1" d="M20.15,17.07h.08C20.14,17,20.09,17,20.15,17.07Z"/><path class="cls-1" d="M24,14.29l-.31-.09C24,14.39,24,14.29,24,14.29Z"/><path class="cls-1" d="M30.3,12.1a1.37,1.37,0,0,0-.18-.19l.05.1Z"/><path class="cls-1" d="M24.32,12.44l0,0L24,12.16Z"/><path class="cls-1" d="M24.93,11.28a10.52,10.52,0,0,0,.94.7,2.42,2.42,0,0,1-.44-.37Z"/><path class="cls-1" d="M27.31,10.42l-.07-.1Z"/><path class="cls-1" d="M23.65,13.1l-.26-.16Z"/><path class="cls-1" d="M8.42,46.64l-.12-.08C8.37,46.61,8.41,46.65,8.42,46.64Z"/><path class="cls-1" d="M4.13,45.53l0,0-.39-.27Z"/><path class="cls-1" d="M18.58,17.45h0C18.54,17.38,18.54,17.4,18.58,17.45Z"/><path class="cls-1" d="M12.89,26.89c.7.32.69.71,1.49,1A8,8,0,0,0,12.89,26.89Z"/><path class="cls-1" d="M30.19,12.07a.08.08,0,0,1,0,0S30.21,12.1,30.19,12.07Z"/><path class="cls-1" d="M14.38,27.92h0l.08,0Z"/><path class="cls-1" d="M17.44,20l.32.18A2.41,2.41,0,0,0,17.44,20Z"/><path class="cls-1" d="M19.59,19l-.12,0A.34.34,0,0,0,19.59,19Z"/><path class="cls-1" d="M17.82,21.57c-.06,0-.17-.07-.09,0a.2.2,0,0,0,.09.05C17.73,21.57,17.7,21.52,17.82,21.57Z"/><path class="cls-1" d="M17.2,22.49l.15.08a.43.43,0,0,0,0-.05Z"/><path class="cls-1" d="M10,43.62c-.21-.11-.43-.24-.65-.38C9.84,43.56,9.93,43.82,10,43.62Z"/><path class="cls-1" d="M29.91,11.84a1.45,1.45,0,0,1,.28.23.14.14,0,0,0,0-.06Z"/><path class="cls-1" d="M23.29,25.36l-.2.07A.2.2,0,0,0,23.29,25.36Z"/><path class="cls-1" d="M14.39,37l.06.09S14.46,37,14.39,37Z"/><path class="cls-1" d="M22.9,25.94a4,4,0,0,0-.54-.25l.17.14Z"/><path class="cls-1" d="M9.33,43.24h0Z"/><path class="cls-1" d="M10.33,45.33c.11-.13-.85-.68-1.36-1.07-.14-.34.73.38,1.24.65-.18-.27-1-.93-.87-1a2.52,2.52,0,0,1,.39.27c-.65-.61.19-.35-.64-1.1a1.38,1.38,0,0,1,.24.14c-.47-.3-.94-.61-1.27-.84,0-.08-.5-.51.12-.13,0,0,.19.2.37.34l-.22-.24c.9.53.24.29.87.73-.19-.32-.8-1-.49-.89.86.56.13.42,1,.8L9.25,43c1.41.79-.15,0,1.34.89.38,0-.28-.52.1-.55-.44-.36-.7-.46-1.14-.82-.65-.86,2.27,1.22,1.29.25-.52-.44-1.57-1.18-.91-.95l.92.7c.22-.12-1.3-1-.52-.8.35.29.21.36.35.41.84.38-.48-.46-.41-.56l.85.55c0-.29-.44-.93-.44-1.26a3.72,3.72,0,0,0,.77.52c-.22-.57.52-.54,1.21-.47L12,40.25a1.67,1.67,0,0,1,.49.31c.35.08-.46-.32-.71-.57,0-.1.47.2.66.39-.48-.61-1-1.45,0-1.11l.19.18c.4,0-1.37-1.19-.6-.87l.11.11c.55-.12.14-.95,1.41-.46-1-.76.7,0-.75-1a7.27,7.27,0,0,0,1.75.6c.12,0-.83-.74-.93-.93l.77.52-.72-.67,1,.56-.14-.22a2.1,2.1,0,0,1-.61-.32c-.25-.36.75,0,1.15.31l-.44-.75a2.71,2.71,0,0,1,.54.51c-.66-.69.83.52.22-.12a4.6,4.6,0,0,1-.6-.43c.51.24.63.07.53-.19l.51.39c.29-.14.08-.66.26-.91a3.64,3.64,0,0,1-1.24-.86l.83.52c-.47-.39-.36-.13-.9-.64.16,0,1,.56,1.18.79l-.2-.31c.25.16.36.27.66.49-.47-.39.95.35.13-.31l.24.16c.18-.26,0-.57.09-.8-.7-.48-.48-.46-1-.91.32,0,1,.2,1.06,0-.26-.36-.57-.44-.94-.78.64.42.71.2,1.1.61.05-.3.07-.38-.26-1a3.27,3.27,0,0,1-.62-.36c-.07-.12.35.07.65.28l.06.06c-.74-1,2.35.53,1.2-.63l.05.06-.51-.73c.19,0,.43.4.88.58-.86-1,.46-.35-.08-1.06,2,1.1.3-.73,1.66-.16l-.45-.29c-.39-.35.31.1.44.12a3.9,3.9,0,0,1-.66-.4c-.16-.9,1.4-.66,2.17-.94.26-.12-2.2-1.67-1-1.2l.77.63c-.7-1.08.6-.81,0-1.77.17.15.41.32.38.36.66.32.24-.29-.24-.62.1,0,.45.28.72.41s-.61-.73,0-.37a1,1,0,0,1,.21.2c-.25-.25.25-.2-.47-.62.42.08-.12-.49.37-.33-.71-.6.54,0-.52-.77,1.11.78,1.08.36.61-.09.32.26.41.16.85.51.06-.11-.08-.35-.67-.73,1.48.72-.81-1.13,1-.07A5.62,5.62,0,0,1,23,22.77c1.11.78-.11.4,1.08,1.18-.28-.58-1.13-1.39-.68-1.48.2,0,.46.37.63.53-.27-.59.46-.46,0-1.12a2.25,2.25,0,0,1,.27.26c0-.07.24,0-.27-.34l.1.14a12,12,0,0,1-1.79-1.51c1.4,1.07.53,0,2.28,1.39A3.19,3.19,0,0,0,24,21.3a1.76,1.76,0,0,1,.69.45c-.16-.36-.74-.67-.63-.81.25.17.32.26.6.48-.42-.41-.85-.82-.55-.8.14.11.34.22.31.26.08-.28-1-1.25-.38-1.18,1,.8.4.15,1.34.77l-.19-.32-.48-.25c.09-.11-.51-.67-.14-.56l.32.34,0-.33-.43-.12c-.4-.44-1.18-.79-.82-.76.08.09.09-.11.68.2h0c-.25-.26-.52-.53-.23-.46s1,.72,1.21.84c-.73-.58,0-.42-.8-1.05.18.15.66.49.76.55l-.59-.48a2.2,2.2,0,0,1,.72.42c.22-.09-1.21-.75-.57-.6,0,.05.14.11.21.2.4,0-.14-.64.29-.61,1,.59.12.31.94.79,0-.37-.75-1.29-.36-1.39l-.14,0c-1.29-.93.78.26.24-.29a4.58,4.58,0,0,0,.56.43c.33,0-.08-.56-.32-1.1l.31.26c.37.11.36-.14.58-.14a2.83,2.83,0,0,0-.73-.59c2.15,1-.6-1.33,1.2-.53,0,0,.24.28.26.25l-.14-.46a5.58,5.58,0,0,0-.85-.45c-.32-.27-.53-.52-.49-.58a3.87,3.87,0,0,0,1.27.8l-.54-.38c1.1.56-1.14-.81-.33-.52l.29.21c-.11-.17-.46-.5-.33-.51.69.42.26.28.81.66,0-.13-1.12-1.06-.4-.7.15.17.12.23.27.4.85.43.66.28.83.29h0l.47.07-.24-.1c-1.64-1.31-.14-.48-1.16-1.42,1,.9.6.45,1.34,1a3,3,0,0,1,.72.35c-.55-.49.57.19-.24-.53.25.16.08-.07.68.37-.12-.24-.44-.27-.74-.48-.71-.73,1.26.3.29-.7-.33-.52-1.12-1.11-1.4-1.58a3.36,3.36,0,0,1,.85.65c.42.15.41,0,.2-.26a3.48,3.48,0,0,0,.68.42c0-.12-.85-.65-.42-.51.26.2.67.52.92.74-.17-.24-.56-.64-.71-.88a4.44,4.44,0,0,1,.85.71,2.15,2.15,0,0,0-.84-1l-.28-.09a3,3,0,0,1,.69.48c.46.45-.32,0-.57-.19l-.11-.17c-1.46-.9.05.42-.13.5l-1-.76.76.72a4,4,0,0,1-1-.7c-.58-.25.3.34-.32,0l-.18-.12.25.3c-.21-.16-.74-.48-.55-.44-.71-.23.58.8-.24.33l-.05,0c.19.47.74.54,1.51,1.32l-1.95-1.16.74.54s-.13,0-.43-.2c.46.44.34.21.79.59-.77-.35.11.54-1.12-.25.55.43.52.19.84.59-1.32-.85.12.29-.54,0-.65-.49-.23-.35-.9-.65,1.09.84-.39,0-.23.28.9.62.24.45.44.8-.3-.21-.69-.05-1.11-.14l-.15-.1c.89.64.62.67.74.9a5.3,5.3,0,0,1-1-.76l-.06.1a1.52,1.52,0,0,1,.47.49l-.66-.48c-.06.15.62.81.05.66a12.45,12.45,0,0,1,2.16,1.54,7.25,7.25,0,0,1-1.05-.76c0,.05.25.25.08.18l-.53-.46c-.3-.1.46.36.36.39-.49-.34-.38-.19-.76-.47,0-.05.24.09.06-.07a2.06,2.06,0,0,1-.87-.33,2.92,2.92,0,0,1,.69.55c-.06.15-.62-.36-.93-.46.32.27-.09.11.64.61,0,0-.37-.19-.58-.31.27.29-.13.38.7.84h.07l0,0h0c.58.72-.73.18-.57.61l-.24-.17c.19.33,0,.41.43.86a2.3,2.3,0,0,1-.79-.43c.11.23.38.43-.12.3-.36-.39-.41-.22-.25-.32-.3,0-.71-.25-.13.35-.6-.48-.86-.44-.72-.25l.51.21c.05.13-.05.16-.14.18l-.81-.59c-1.18-.42,1.38,1.65-.44.7.53.47.51.13,1.14.66a10.61,10.61,0,0,1-1.5-.6c-.57-.14,1.1,1,.67.95a4.55,4.55,0,0,1,1.29,1,4.31,4.31,0,0,1-1.52-.93c0-.05.1,0,.2.07a1.14,1.14,0,0,0-.52-.42l.28.22c-.34-.14-.42.05-.88-.32a1,1,0,0,0,.66.4c-.54-.13-.19.24-.58.21a1.89,1.89,0,0,1,.52.32c-.53,0,.48.48.5.73-.51-.21-1.05-.76-.78-.34a3,3,0,0,1-1-.72c.47.54-.56,0-.72,0l-.19-.24c.11.14.08.18.06.22l.61.35a.57.57,0,0,1-.4-.15c.35.31,1,.63,1.46,1.08-.34-.14.2.41-.6-.1.4,0-.8-.52-.81-.76.07.09,0,.13-.09.1a.58.58,0,0,1-.2-.16c-.82-.29.83.69.68.87-.42-.33-.87-.53-.79-.43.06-.07.76.46,1,.76-.42-.11.17.31.08.35l.22,0c.42.33.32.35.4.53-.35-.23-.18-.24-.36-.31.71.62-.94-.33-.51.15-.34-.14-.83-.55-1.07-.64.47.54-.71-.25-.35.23a2.83,2.83,0,0,1,1,.75l-.24-.54.74.75c.06-.07-.26-.41-.13-.39a2.41,2.41,0,0,0,.81.6c-1-.5.37.56-.31.27l-1.46-1c-.78-.26.53.84,0,.82l.3.1c.56.43,0,.2.17.44a7.78,7.78,0,0,0-1-.59c.37.25-.15.15.81.84l-.71-.33c-.4,0,1.24,1.17.95,1.24A8.22,8.22,0,0,1,17.62,21c-.05.06-.18.05.16.28-.33-.17.54.62,0,.36.19.18.7.53.61.58s-.24-.17-.24-.17a3.7,3.7,0,0,0,.84.64c-1.66-.85-.25.61-1.68-.12a1.25,1.25,0,0,1,.07.66c-.14-.1-.24-.16-.17-.15-.57-.14,1.33,1.06.69.91-.86-.45-.36-.4-.7-.54-1.62-1.07.06.38-1-.13l-.08-.1c-.61-.27.45.66.22.74a2.24,2.24,0,0,0-.24-.16,3,3,0,0,1,1,1.37,4.66,4.66,0,0,0-.95-.7c.05.13,1,.68,1.13.94a9.74,9.74,0,0,1-1.44-.75L16,24.5c-.93-.53-.08.19-.28.16l-.38-.27c0,.28,1,.95.74,1.12l.31.18c.88.77-.61-.28,0,.33l-1-.63a8.33,8.33,0,0,1,.85,1.18,11.29,11.29,0,0,1-1.29-1.38c-.06.07-.11.31.35.68-.08-.1-.29-.3-.12-.23.71.62,1,1,.88,1.15-1.88-1.33-.75.07-2.3-.82.51.75-.67.33-.77.73,1.55.89,0,.12,1.5,1.13,0,.14,0,.15-.1.09l-1.06-.39c-.47-.25-.28-.3-.63-.53-.22.09-.69-.37-1.16-.53.56.34.74.58.47.53l.78.35c.66.78-1.4-.67-.76.1l-.42-.4c.2.31-.31.43.83,1.37a2.77,2.77,0,0,1-.7-.48c-.37.16.88,1.51,0,1.21l-.36-.27c.07.12.64.56.22.37a2.22,2.22,0,0,0-.4-.26c.11.11.56.58.3.5l-.38-.34c-.67-.06.73,1.11.83,1.51a3.35,3.35,0,0,0-1.84-.78l-.15-.11c-.36.22.53,1.15.76,1.74-1.31-.63-.92.28-1.78.12a3.66,3.66,0,0,1,.92.71c-.27-.08.62.71-.37,0h0c-1-.62-.85-.3-1-.2l1.3.91c-2.1-1,.18,1.23-1.63.22.28.3.22.38.5.67L8,33.46c-.31.07-.47.11-.46.46l-.47-.39c-.14.1,1.91,1.55,1.86,1.7l-1.07-.68c-.14.25-1.22-.14-.43.74A2.33,2.33,0,0,1,7,34.9c-.1.09-1-.06.47.88-.94-.63-.26.18.07.59l-.68-.49c.81.71,1,.88,1.19,1.2-.12,0-.58-.35-.37-.28-.44-.13.59.54.13.43l-.41-.35c-.13.08.11.24.58.65.23.27-.33.11-1-.29.37.27.84.69.61.63a2.6,2.6,0,0,1-.44-.33c-.61-.12.6.85-.17.52a4.71,4.71,0,0,0-.43-.26c.13-.15.25-.25.29-.2A10.21,10.21,0,0,1,5.2,36.51c.41.43,1.33,1.33.94,1.25l-.23-.14-.06-.06c-.09,0,0,0,.05.15-.14,0-.23-.06-.27,0-.53-.35-.38,0-.45,0a7,7,0,0,0,1.16.79.12.12,0,0,1-.08-.13l0-.08.06,0a.82.82,0,0,1,.06-.19c.32.29.58.55.14.35l1.07.86c-1-.57-1.68-.76-2.29-1.15a2.58,2.58,0,0,0,1.16,1.67c.13.17-.42-.2-.64-.32s-.06-.14-.24-.29c.26.34-.1.42.8,1.08-.51-.14-.79-.66-.77-.36l-.26-.22C3.57,39.14,7.2,42,5,41.11a1.39,1.39,0,0,1,.35.17c-1.15-.08.1,1.53-1.54,1.12-.36,0,.22.37.6.75l-.77-.48.77.73c.49.63-2.07-.9-1.05.17l.52.31c-.15,0,.1.49-.47.08.09.07.51.39.22.24l-.39-.26.51.68c-.4,0-1.53-1.08-1.78-.88a5.24,5.24,0,0,0,1.24,1.19s.31.07.71.33l.14.23a16.58,16.58,0,0,0,3.23,2l-.6-.63.59.34-.05.15c.57.28.14-.08-.15-.35a3.93,3.93,0,0,0,.66.36l-1-.9a6.07,6.07,0,0,0,1.16.75c-.46-.41-1.05-.62-1.31-1,.57.28,1,.6.59.21a2.2,2.2,0,0,1,.59.46c-.3-.32,0-.3-.6-.76.7.37,0-.36,1.09.39a3.63,3.63,0,0,1-.77-.82c1.22,1,.25-.2,1.63.79-1.11-.89-.29-.69-.83-1.29.08.07.26.22.19.19.16,0,.53.19.79.28a11.91,11.91,0,0,1-1.63-1.45,23.4,23.4,0,0,1,2,1.42c-.79-.53-.65-.73-1.34-1.14a6.71,6.71,0,0,1,1.17.63c-1.2-.85-.15-.22-.85-.8.69.28,1.16.74.89.35A2.61,2.61,0,0,1,10.33,45.33Zm.12-4.68h0s0,.07,0,.09Zm.17-.28s-.08.05-.11.1c-.24-.16-.48-.34-.45-.36A2.09,2.09,0,0,0,10.62,40.37ZM5.4,37.65c-.07-.11.08,0,.22.06a.3.3,0,0,0,0,.13l.08.06Z"/><path class="cls-1" d="M6.26,38.35l0,0,.17.08-.2-.16Z"/><path class="cls-1" d="M24.17,14.33h0l.11.06Z"/><polygon class="cls-1" points="14.53 37.51 14.35 37.39 14.49 37.52 14.53 37.51"/><path class="cls-1" d="M27.59,14.46l.19.1A.82.82,0,0,0,27.59,14.46Z"/><path class="cls-1" d="M28.19,13.91l.31.08A1.51,1.51,0,0,0,28.19,13.91Z"/><path class="cls-1" d="M28.88,13.65l-.3-.21h0Z"/><path class="cls-1" d="M24.28,22.14a0,0,0,0,0,0,0C24.4,22.32,24.37,22.25,24.28,22.14Z"/><path class="cls-1" d="M24.26,18.67a3.46,3.46,0,0,1,.28.3C24.62,19,24.66,18.94,24.26,18.67Z"/><path class="cls-1" d="M23.32,25.35h0s0,0,0,0Z"/><path class="cls-1" d="M24.45,19.07c.17.06.16,0,.09-.1S24.37,19,24.45,19.07Z"/><path class="cls-1" d="M30.67,11.7h0l-.11-.08Z"/><path class="cls-1" d="M30.6,11.62l-.06-.08S30.53,11.56,30.6,11.62Z"/><path class="cls-1" d="M30.4,11.36l.14.18S30.59,11.51,30.4,11.36Z"/><path class="cls-1" d="M29.9,12.14l.24.18Z"/><path class="cls-1" d="M29.83,12.4c.09,0,.62.24.51.07l-.2-.15C30.5,12.61,29.44,12.06,29.83,12.4Z"/><path class="cls-1" d="M26.14,11.1l.31,0c-.29-.15-.67-.36-.69-.48C24.82,10.25,26.4,11,26.14,11.1Z"/><path class="cls-1" d="M25.39,11.36c-.06-.18-.39-.27-.54-.38A1,1,0,0,0,25.39,11.36Z"/><path class="cls-1" d="M22.82,15.12l-.63-.44C22.23,14.81,22.43,14.85,22.82,15.12Z"/><polygon class="cls-1" points="25.6 18.08 26.04 18.28 25.48 17.85 25.6 18.08"/><polygon class="cls-1" points="20.79 15.42 20.72 15.33 20.88 15.61 20.79 15.42"/><path class="cls-1" d="M16.7,21.91l.79.51C17.38,22.28,16.51,21.67,16.7,21.91Z"/><path class="cls-1" d="M15.63,25.18c-.41-.23-.72-.33-.37,0C15.36,25.14,15.71,25.28,15.63,25.18Z"/><polygon class="cls-1" points="8.76 32.51 8.54 32.28 8.68 32.53 8.76 32.51"/><path class="cls-1" d="M62.71,41.94c.21-.16.65-.55.51-.53l-.77.62Z"/><path class="cls-1" d="M63.79,40.38A11,11,0,0,0,62,41.77c.77-.57.48-.29,1.39-1,.14,0-.16.3-.44.53.21-.15-.09.22.4-.16.52-.57.47-.68-.09-.35A6.08,6.08,0,0,1,63.79,40.38Z"/><path class="cls-1" d="M60.44,34.38l-.06.11A.24.24,0,0,0,60.44,34.38Z"/><path class="cls-1" d="M58,31s.12-.05.18-.11A.34.34,0,0,0,58,31Z"/><path class="cls-1" d="M58.24,29.71a.64.64,0,0,1,0,.07C58.28,29.71,58.3,29.66,58.24,29.71Z"/><path class="cls-1" d="M60.44,34.38l.15-.3C60.35,34.3,60.45,34.29,60.44,34.38Z"/><path class="cls-1" d="M61.39,41.28a.81.81,0,0,0,.23-.13l-.11,0Z"/><path class="cls-1" d="M62.28,35.18l0,0,.32-.25Z"/><path class="cls-1" d="M63.34,36.12a11.49,11.49,0,0,0-.9.75,2.68,2.68,0,0,1,.47-.34Z"/><path class="cls-1" d="M63.74,38.78l.11-.05Z"/><path class="cls-1" d="M61.73,34.31l.21-.21Z"/><path class="cls-1" d="M28.58,12.85l.09-.12C28.61,12.79,28.57,12.84,28.58,12.85Z"/><path class="cls-1" d="M29.8,8.54l.05,0,.28-.37Z"/><path class="cls-1" d="M58.09,28v0C58.18,28,58.15,28,58.09,28Z"/><path class="cls-1" d="M49,20.1c-.4.65-.81.57-1.23,1.32C47.93,21.17,48.75,20.58,49,20.1Z"/><path class="cls-1" d="M61.45,41.18a.1.1,0,0,1-.05,0S61.41,41.19,61.45,41.18Z"/><path class="cls-1" d="M47.72,21.42h0l0,.07Z"/><path class="cls-1" d="M55.59,26.23l-.24.28A3.1,3.1,0,0,0,55.59,26.23Z"/><path class="cls-1" d="M56.34,28.67l0-.12C56.34,28.62,56.33,28.65,56.34,28.67Z"/><path class="cls-1" d="M53.92,26.26c0-.07.1-.16,0-.11l-.06.09C53.94,26.16,54,26.14,53.92,26.26Z"/><path class="cls-1" d="M53.05,25.42l-.1.14H53Z"/><path class="cls-1" d="M31.67,14.71c.12-.2.27-.42.42-.63C31.74,14.56,31.47,14.63,31.67,14.71Z"/><path class="cls-1" d="M61.74,41a2,2,0,0,1-.29.21h.06Z"/><path class="cls-1" d="M49.24,31l0-.22A.26.26,0,0,0,49.24,31Z"/><path class="cls-1" d="M38.32,20l-.1.05S38.24,20,38.32,20Z"/><path class="cls-1" d="M48.71,30.47A3.14,3.14,0,0,0,49,30l-.17.14Z"/><path class="cls-1" d="M32.1,14.07h0Z"/><path class="cls-1" d="M29.89,14.9c.13.13.73-.81,1.15-1.29.36-.12-.42.71-.71,1.2.29-.15,1-.89,1-.8a1.83,1.83,0,0,1-.29.38c.66-.61.36.23,1.17-.55a1.53,1.53,0,0,1-.15.23c.32-.45.66-.9.92-1.21.07,0,.55-.46.12.13,0-.05-.21.18-.36.34l.26-.19c-.59.87-.32.21-.79.82.34-.17,1-.73.94-.42-.61.82-.45.09-.87.91L32.4,14c-.87,1.36,0-.16-1,1.28,0,.39.54-.24.56.15.39-.41.5-.67.9-1.08.91-.57-1.37,2.19-.32,1.29.48-.48,1.3-1.48,1-.82l-.77.86c.12.24,1.14-1.21.86-.44-.32.32-.39.17-.45.31-.43.81.5-.44.61-.36l-.62.81c.31,0,1-.35,1.34-.31a3.22,3.22,0,0,0-.58.73c.6-.17.53.58.42,1.28l.66-.6a1.3,1.3,0,0,1-.34.46c-.1.34.36-.43.63-.66.1,0-.24.46-.44.63.66-.42,1.55-.8,1.15.09l-.2.17c-.07.41,1.32-1.25.94-.49l-.12.09c.09.57,1,.26.38,1.5.86-.94,0,.71,1.13-.63a6.61,6.61,0,0,0-.75,1.7c0,.13.82-.75,1-.82l-.59.71.74-.64-.65.9.24-.11a1.85,1.85,0,0,1,.37-.58c.4-.21-.1.76-.4,1.12l.81-.33a2.65,2.65,0,0,1-.58.47c.78-.58-.6.77.11.24a5.37,5.37,0,0,1,.5-.55c-.29.49-.13.64.15.56l-.44.47c.12.31.67.17.91.4a3.69,3.69,0,0,1,1-1.14l-.6.77c.44-.42.16-.35.74-.82,0,.16-.66.89-.92,1.09l.33-.16c-.18.22-.31.32-.56.59.44-.42-.45.91.31.18l-.18.22c.24.22.58.07.81.21.56-.63.52-.42,1-.88,0,.33-.3,1-.07,1.08.4-.2.51-.5.9-.83-.5.59-.28.69-.73,1,.29.09.37.12,1.06-.1a3,3,0,0,1,.43-.57c.13,0-.1.34-.36.61l-.06,0c1.07-.59-.79,2.29.52,1.32l-.06,0,.8-.39c0,.2-.45.37-.69.8,1.13-.71.31.52,1.1.09-1.35,1.83.72.44,0,1.72l.35-.41c.41-.33-.13.29-.17.42.27-.31.26-.41.49-.59,1,0,.51,1.54.69,2.37.09.27,2-1.92,1.36-.77l-.75.66c1.2-.51.75.76,1.81.38-.18.14-.39.36-.42.32-.42.6.26.3.67-.12,0,.1-.36.39-.53.64s.83-.47.38.08a1,1,0,0,1-.24.18c.29-.21.17.29.7-.36-.14.42.52,0,.29.45.72-.6-.08.55.86-.37-.95,1-.52,1,0,.64-.31.27-.22.38-.65.75.11.08.37,0,.84-.52-1,1.33,1.28-.58-.07,1a5.57,5.57,0,0,1,1.9-.29c-1,1-.38-.19-1.37.83.64-.15,1.6-.83,1.62-.35-.07.19-.45.38-.64.52.65-.15.39.56,1.13.26a1.43,1.43,0,0,1-.3.22c.07,0,0,.24.39-.2l-.16.07a11.39,11.39,0,0,1,1.84-1.46c-1.33,1.17-.1.53-1.8,2a2.63,2.63,0,0,0,.64-.52,1.69,1.69,0,0,1-.58.6c.39-.08.8-.6.94-.44-.22.21-.33.26-.59.49.48-.34,1-.67.91-.38-.14.12-.29.3-.32.26.26.14,1.45-.73,1.27-.11-1,.84-.23.37-1,1.17l.36-.11.34-.43c.09.12.77-.35.6,0l-.41.24.34,0,.2-.41c.52-.29,1-1,.92-.64-.11,0,.09.12-.33.64h0c.31-.2.63-.4.51-.13s-.91.85-1.07,1c.73-.59.43.08,1.22-.55a8,8,0,0,0-.7.64l.59-.48a2.1,2.1,0,0,1-.55.62c.05.25,1-1,.71-.43a2.25,2.25,0,0,1-.24.17c-.06.4.68,0,.57.44-.77.82-.34,0-1,.75.37.1,1.45-.44,1.47,0l0-.13c1.19-1.06-.41.72.25.32a5,5,0,0,0-.54.45c0,.34.59.06,1.18,0l-.33.25c-.17.34.08.39,0,.62a2.9,2.9,0,0,0,.74-.58c-1.42,1.89,1.48-.25.31,1.35,0,0-.34.16-.32.19l.5,0a5.7,5.7,0,0,0,.63-.73c.33-.25.63-.4.68-.34a3.72,3.72,0,0,0-1.06,1.07c.15-.16.34-.3.49-.45-.79,1,1-.92.59-.19l-.27.24c.19-.06.6-.33.59-.19-.57.57-.34.19-.83.63.12.06,1.3-.83.79-.21-.21.11-.26,0-.46.16-.61.73-.43.58-.47.75v0l-.17.45.15-.21c1.66-1.28.51,0,1.68-.76-1.11.71-.58.47-1.27,1.07a2.77,2.77,0,0,1-.51.62c.62-.42-.31.51.59-.1-.22.2,0,.11-.51.58.26,0,.36-.36.64-.6.88-.52-.58,1.17.64.48.6-.18,1.36-.8,1.89-1a2.87,2.87,0,0,1-.84.66c-.23.39-.11.41.23.28a3.33,3.33,0,0,0-.58.56c.13,0,.84-.66.61-.27-.26.2-.67.52-1,.7.28-.09.77-.36,1.05-.45a4.5,4.5,0,0,1-.91.65A2.15,2.15,0,0,0,63,40.8l.16-.25c.06,0-.5.47-.63.54-.56.34.09-.31.31-.51l.2-.06c1.22-1.2-.44-.07-.48-.27l1-.77-.89.55a3.94,3.94,0,0,1,.91-.79c.38-.5-.4.22,0-.32a.47.47,0,0,1,.17-.14l-.36.15c.21-.15.64-.6.56-.42.39-.65-.94.35-.29-.34l.07,0c-.52,0-.7.58-1.65,1.13l1.57-1.62-.7.58s0-.13.3-.37c-.55.33-.29.28-.77.63.52-.68-.57-.05.49-1.06-.55.43-.3.47-.77.68,1.13-1.09-.33,0,.11-.55.63-.51.4-.12.85-.71-1.08.85,0-.4-.24-.32-.81.73-.51.12-.91.22.28-.24.19-.68.36-1.08l.14-.12c-.84.72-.81.44-1.07.49a4.8,4.8,0,0,1,1-.74l-.09-.1a1.37,1.37,0,0,1-.59.34l.63-.53c-.15-.1-1,.4-.7-.14-.57.51-1.45,1.58-2,1.76a6.31,6.31,0,0,1,1-.85c-.06,0-.31.18-.2,0l.57-.4c.16-.29-.46.35-.47.25.44-.4.27-.33.62-.64.06,0-.13.22.06.08a2,2,0,0,1,.51-.79,2.88,2.88,0,0,1-.69.55c-.15-.1.48-.53.63-.81-.33.25-.09-.12-.74.48,0,0,.27-.33.43-.51-.35.2-.37-.23-1,.49l0,.06h0c-.84.39,0-.78-.52-.73l.21-.21c-.36.11-.4-.14-1,.21,0,0,.31-.46.58-.69-.25.06-.5.27-.28-.2.47-.26.3-.35.37-.16.06-.3.38-.66-.33-.23.59-.48.6-.76.38-.66l-.31.46c-.15,0-.15-.09-.16-.2l.75-.65c.63-1.1-1.94,1-.66-.64-.56.42-.22.48-.86,1,0-.21.89-1.33.86-1.37.24-.54-1.19.87-1.08.44A4.53,4.53,0,0,1,57,32c0-.2.93-1.18,1.21-1.3,0,0,0,.1-.11.18a1,1,0,0,0,.52-.43l-.27.24c.21-.31,0-.45.48-.82a.94.94,0,0,0-.53.56c.23-.51-.21-.24-.12-.64-.11.16-.39.48-.41.45.09-.53-.58.38-.84.33.3-.46,1-.87.48-.71a2.64,2.64,0,0,1,.9-.84c-.63.34.06-.58.07-.75l.28-.13c-.17.08-.2,0-.23,0l-.47.54a.63.63,0,0,1,.22-.38,17.64,17.64,0,0,1-1.35,1.23c.2-.31-.45.1.21-.59,0,.41.65-.68.91-.64q-.16.08-.09-.12a.64.64,0,0,1,.19-.16c.43-.76-.84.67-1,.48.4-.35.68-.75.57-.7.06.08-.6.66-1,.88.19-.41-.34.09-.36,0l-.07.2c-.4.35-.41.25-.61.29.29-.3.28-.13.38-.29-.75.57.48-.88-.08-.56.19-.32.7-.72.82-.94-.63.35.36-.67-.19-.41a2.62,2.62,0,0,1-.92.83l.59-.12-.89.58c.07.08.47-.17.43,0a2.4,2.4,0,0,0-.74.68c.66-.86-.63.25-.24-.38l1.26-1.25c.38-.73-.95.34-.86-.19l-.14.29c-.53.47-.21-.07-.49.06a5.56,5.56,0,0,0,.76-.91c-.3.32-.14-.19-1,.64l.45-.66c0-.41-1.39,1-1.42.69.5-.41.72-.79,1.16-1-.06-.06,0-.19-.32.1.22-.3-.72.41-.38,0-.21.16-.65.59-.68.49a2.54,2.54,0,0,1,.21-.2,3,3,0,0,0-.78.71c1.1-1.5-.6-.39.35-1.68a1.47,1.47,0,0,1-.7-.07c.13-.13.2-.22.18-.15.22-.55-1.27,1.13-1,.51.57-.78.45-.28.65-.6,1.32-1.43-.41,0,.26-1l.11-.05c.36-.57-.74.31-.8.06a2.27,2.27,0,0,0,.2-.21,2.93,2.93,0,0,1-1.55.73,4.7,4.7,0,0,0,.85-.82c-.15,0-.84.93-1.12,1a9.13,9.13,0,0,1,1-1.31l.16.08c.67-.84-.19-.12-.13-.32l.33-.33c-.3-.08-1.11.78-1.26.53l-.22.27c-.91.75.36-.56-.35,0l.77-.89a8.35,8.35,0,0,1-1.32.63,9.44,9.44,0,0,1,1.59-1c-.07-.07-.32-.17-.75.22.1-.05.34-.23.25-.07-.73.6-1.16.82-1.29.67,1.58-1.66,0-.79,1.1-2.2-.84.39-.28-.75-.68-.93-1.1,1.42-.13,0-1.35,1.33-.15,0-.15,0-.08-.12l.52-1c.31-.44.34-.24.61-.55-.06-.25.46-.63.68-1.09-.42.5-.69.64-.61.38l-.44.74c-.88.52.84-1.32,0-.8l.46-.37c-.35.15-.42-.39-1.52.6a2.47,2.47,0,0,1,.57-.62c-.13-.42-1.66.62-1.27-.25l.31-.32c-.13.06-.65.56-.41.16.13-.14.32-.32.31-.36s-.66.47-.55.21l.39-.32c.12-.68-1.23.55-1.66.58a3.05,3.05,0,0,0,1-1.76l.13-.13c-.22-.4-1.26.35-1.9.49.76-1.24-.22-1,0-1.85a3.59,3.59,0,0,1-.82.83c.1-.27-.79.53,0-.38v0c.72-1,.37-.83.28-1l-1,1.19c1.2-2-1.31,0-.14-1.71-.33.24-.41.16-.74.41l.55-.65c0-.33-.08-.49-.46-.54l.44-.43c-.1-.15-1.74,1.74-1.9,1.67l.78-1c-.25-.18.21-1.24-.76-.55a2,2,0,0,1,.44-.42c-.1-.12.1-1-1,.35.72-.87-.18-.29-.63,0l.55-.63c-.78.74-1,1-1.31,1.07,0-.12.39-.55.3-.34.16-.44-.59.54-.45.07l.39-.37c-.09-.15-.26.08-.72.51-.29.19-.1-.36.36-1-.31.34-.76.77-.7.54a1.84,1.84,0,0,1,.38-.4c.15-.62-.92.5-.55-.25a3.06,3.06,0,0,0,.29-.41c.15.15.26.29.2.33a10,10,0,0,1,1.21-1.56c-.47.37-1.45,1.21-1.35.82l.15-.22.07-.06c0-.08-.06-.05-.16,0,0-.13.07-.23,0-.27.39-.51.06-.39,0-.47-.52.67-.52.49-.87,1.1,0-.06.07-.07.14-.06a.19.19,0,0,0,.08-.05l0,.06a.69.69,0,0,1,.2.09c-.32.29-.6.53-.38.1l-.94,1c.64-1,.86-1.63,1.29-2.22-.5.21-.68-.14-1.79,1-.19.11.21-.41.34-.62s.16-.05.32-.21c-.37.22-.44-.15-1.15.69.16-.51.71-.73.39-.75l.24-.24c.69-1.71-2.39,1.72-1.43-.42a1.35,1.35,0,0,1-.19.35c.1-1.18-1.61-.06-1.15-1.7,0-.37-.39.18-.8.54l.51-.74L32,9.06c-.67.45,1-2.05-.16-1.1l-.34.52c0-.17-.52,0-.08-.5-.08.09-.41.49-.26.2l.28-.38-.72.48c0-.42,1.16-1.49.94-1.77a5.14,5.14,0,0,0-1.26,1.18s-.07.31-.35.7l-.24.12a15.56,15.56,0,0,0-2.14,3.15l.66-.56-.35.58-.16-.07c-.31.57.08.15.36-.12a4.12,4.12,0,0,0-.38.65l.95-1a5.9,5.9,0,0,0-.8,1.13c.44-.44.67-1,1-1.26-.31.56-.64,1-.23.59a2.75,2.75,0,0,1-.49.56c.33-.28.31,0,.8-.55-.4.68.38,0-.43,1.08a3.39,3.39,0,0,1,.86-.72c-1.08,1.17.21.27-.85,1.6.95-1.06.72-.25,1.37-.75-.08.08-.24.25-.21.18,0,.17-.21.53-.31.79a9.94,9.94,0,0,1,1.55-1.54,18.62,18.62,0,0,1-1.54,1.93c.58-.76.78-.6,1.23-1.26a6.71,6.71,0,0,1-.69,1.14c.92-1.15.24-.14.86-.79-.31.67-.81,1.11-.4.86A2.32,2.32,0,0,1,29.89,14.9Zm4.86.59h0l-.1,0Zm.28.21a.17.17,0,0,0-.1-.12c.17-.24.37-.46.39-.43A1.88,1.88,0,0,0,35,15.7Zm3.07-5c.12-.06,0,.08-.07.22l-.14,0-.07.08Z"/><path class="cls-1" d="M37.33,11.47l-.06,0-.09.17.18-.19Z"/><path class="cls-1" d="M60.37,34.51v0a.32.32,0,0,1-.08.09Z"/><polygon class="cls-1" points="37.75 20.03 37.88 19.87 37.74 19.99 37.75 20.03"/><path class="cls-1" d="M59.58,37.92l-.14.16Z"/><path class="cls-1" d="M60,38.66l-.14.29A1.35,1.35,0,0,0,60,38.66Z"/><path class="cls-1" d="M60.13,39.42l.28-.23h0Z"/><path class="cls-1" d="M52.37,32.68s0,0,0,0S52.24,32.74,52.37,32.68Z"/><path class="cls-1" d="M55.91,33.48a3.6,3.6,0,0,1-.35.2C55.55,33.77,55.57,33.81,55.91,33.48Z"/><path class="cls-1" d="M49.25,31h0Z"/><path class="cls-1" d="M55.47,33.57c-.08.16,0,.17.09.11S55.59,33.52,55.47,33.57Z"/><path class="cls-1" d="M61.71,41.76v.05l.1-.09Z"/><path class="cls-1" d="M61.81,41.72l.1,0S61.88,41.66,61.81,41.72Z"/><path class="cls-1" d="M62.12,41.6l-.21.08S61.92,41.74,62.12,41.6Z"/><path class="cls-1" d="M61.44,40.87l-.24.19Z"/><path class="cls-1" d="M61.2,40.73c0,.09-.39.55-.18.49l.18-.16C60.84,41.33,61.62,40.43,61.2,40.73Z"/><path class="cls-1" d="M63.29,37.39l0,.33c.22-.25.51-.58.64-.56C64.42,36.31,63.38,37.69,63.29,37.39Z"/><path class="cls-1" d="M63.17,36.57c.2,0,.35-.32.5-.44A.9.9,0,0,0,63.17,36.57Z"/><path class="cls-1" d="M59.8,32.92l.57-.52C60.22,32.41,60.15,32.6,59.8,32.92Z"/><polygon class="cls-1" points="56.28 34.97 55.99 35.36 56.53 34.91 56.28 34.97"/><polygon class="cls-1" points="59.84 30.79 59.95 30.74 59.64 30.82 59.84 30.79"/><path class="cls-1" d="M53.72,25l-.64.7C53.25,25.65,54,24.9,53.72,25Z"/><path class="cls-1" d="M50.44,23.24c.29-.37.43-.66.06-.37C50.52,23,50.33,23.3,50.44,23.24Z"/><polygon class="cls-1" points="43.37 14.86 43.63 14.67 43.36 14.78 43.37 14.86"/><path class="cls-1" d="M64.93,38.83c.23-.14.64-.56.45-.58l-.8.59Z"/><path class="cls-1" d="M65.62,36.86A5,5,0,0,0,63.8,38.2c.81-.53.55-.23,1.51-.87.18,0-.06.41-.35.64.22-.14,0,.31.51,0,.43-.66.29-.86-.35-.62A2.55,2.55,0,0,1,65.62,36.86Z"/><path class="cls-1" d="M56.87,25.47l0,.15C56.88,25.55,56.89,25.51,56.87,25.47Z"/><path class="cls-1" d="M51,18.83a.22.22,0,0,0,.22-.08A.24.24,0,0,0,51,18.83Z"/><path class="cls-1" d="M50.63,17a.43.43,0,0,0,0,.11C50.69,17,50.7,17,50.63,17Z"/><path class="cls-1" d="M56.87,25.47l.06-.39C56.69,25.3,56.84,25.34,56.87,25.47Z"/><path class="cls-1" d="M62.53,37.06a.68.68,0,0,0,.28-.09h-.16Z"/><path class="cls-1" d="M60.18,27.7l0,.05.34-.24Z"/><path class="cls-1" d="M62.38,29.76c0-.07-.65.49-.93.73A1.12,1.12,0,0,1,62,30.2C62.08,30.09,62.22,30,62.38,29.76Z"/><path class="cls-1" d="M64.57,34.24l.14,0A.78.78,0,0,0,64.57,34.24Z"/><path class="cls-1" d="M58.81,26a1.69,1.69,0,0,0,.2-.23C58.93,25.88,58.87,26,58.81,26Z"/><path class="cls-1" d="M7.48,42.52l-.14-.06C7.41,42.51,7.46,42.53,7.48,42.52Z"/><path class="cls-1" d="M2.27,44l0-.06-.43-.2Z"/><path class="cls-1" d="M49.36,14.28v0C49.48,14.28,49.43,14.27,49.36,14.28Z"/><path class="cls-1" d="M24.8,1c.38.21.31.53.3.84a.73.73,0,0,0,.48.79C25.35,2.4,25.52,1.14,24.8,1Z"/><path class="cls-1" d="M62.56,36.93a.26.26,0,0,1-.09-.09C62.49,36.9,62.51,36.93,62.56,36.93Z"/><path class="cls-1" d="M25.58,2.64h0l.08,0Z"/><path class="cls-1" d="M44.28,10.27a2,2,0,0,0-.2.32A3.32,3.32,0,0,0,44.28,10.27Z"/><path class="cls-1" d="M47,14.4v-.16A.28.28,0,0,0,47,14.4Z"/><path class="cls-1" d="M41.62,9.5c0-.1.05-.2-.09-.17l0,.09C41.59,9.36,41.65,9.35,41.62,9.5Z"/><path class="cls-1" d="M39.65,7.8,39.58,8l.09,0Z"/><path class="cls-1" d="M10.37,35.43a5.12,5.12,0,0,1-.73-.23C10.19,35.43,10.22,35.86,10.37,35.43Z"/><path class="cls-1" d="M62.87,36.73a.76.76,0,0,1-.31.2l.09,0A1.15,1.15,0,0,0,62.87,36.73Z"/><path class="cls-1" d="M37.15,14.42l-.22-.35A.72.72,0,0,0,37.15,14.42Z"/><path class="cls-1" d="M19,19.56l0,.13S19.05,19.63,19,19.56Z"/><path class="cls-1" d="M36,13.39a1.72,1.72,0,0,0,.22-.58.89.89,0,0,0-.18.13Z"/><path class="cls-1" d="M9.63,35.2h0Z"/><path class="cls-1" d="M10.28,38.44c.19-.33-.9-.63-1.44-1-.08-.55.83.17,1.41.27-.15-.38-1-1-.84-1.19a1.14,1.14,0,0,1,.44.2c-.66-.66.35-.82-.48-1.62l.26.08a13.57,13.57,0,0,1-1.39-.63c.06-.16-.48-.6.2-.33-.07.08.19.22.37.36l-.2-.3c1,.32.21.38.9.73-.15-.47-.74-1.22-.35-1.33.93.4,0,.72,1,.8l-.53.2c1.58.43-.21.17,1.46.68.5-.36-.2-.78.32-1.13-.46-.36-.77-.34-1.22-.7-.56-1.16,2.56.61,1.61-.51-.54-.44-1.66-1.08-.87-1.13l1,.65c.34-.41-1.33-1-.39-1.16.36.29.15.54.31.53,1,.11-.47-.52-.34-.77l.93.42c.12-.57-.25-1.46-.11-2.1a1.68,1.68,0,0,0,.82.44c-.07-.93.9-1.43,1.8-1.79l-.63-.68c0-.05.41.08.52.23.44-.1-.48-.28-.72-.57,0-.18.56.05.74.27-.41-.82-.69-2.09.4-2.1l.18.22c.52-.19-1.33-1.31-.42-1.25l.1.14c.78-.62.61-1.91,2.11-1.85-1-.76.95-.51-.54-1.46,1,0,1.22.29,2.11,0,.17-.13-.79-.82-.82-1.13l.79.47-.66-.79,1,.43L19,19.69a1.06,1.06,0,0,1-.68-.2c-.17-.53,1-.42,1.42-.18l-.22-1.13a1.47,1.47,0,0,1,.48.62c-.56-.89.87.44.36-.37a3,3,0,0,1-.61-.42.65.65,0,0,0,.83-.7l.5.39c.48-.44.45-1.29.85-1.87-.39.05-1.29-.6-1.27-.83l.87.46c-.43-.44-.43,0-.9-.65.24-.16,1,.45,1.22.75l-.11-.45c.25.14.34.29.64.5-.44-.44,1.13.07.35-.66l.25.14c.39-.59.28-1,.56-1.55-.69-.47-.41-.56-.89-1.08.46-.2,1.28-.24,1.5-.68-.15-.53-.54-.49-.86-.9.65.41.87,0,1.18.49a2.56,2.56,0,0,0,.21-1.64c-.29-.13-.46-.14-.64-.33,0-.19.44-.05.72.19l0,.07C24.61,9,25.34,9,26,9s1.2.08.82-.66l0,.07c-.06-.33-.12-.66-.16-1,.28-.08.27.53.73.75-.22-.67,0-.78.23-.83s.28.1.19-.35c.6,1,.56.95.59.77s.14-.49.19.31V7.48c0-.56,0,.33,0,.47,0-.45,0-.52,0-.83.22-.31.47,0,.44.42l0,.15.12.23.25.51a7.74,7.74,0,0,0,.55,1c.31.39,1.85-2.08,1.63-.66l-.74.69c1.55-.34,1.68,1.34,3.13,1.21-.19.14-.38.37-.46.3-.28.7.62.56,1,.11.08.15-.31.43-.42.73-.1.46,1-.35.65.28a.42.42,0,0,1-.26.15c.34-.18.46.51.89-.22,0,.57.83.22.76.81.76-.57.23.79,1.14-.16-.91,1-.19,1.29.43,1-.34.25-.12.46-.57.82.24.18.6.17,1-.38-.68,1.57,1.68-.26.52,1.5a8.64,8.64,0,0,1,2.86.52c-.93,1-.73-.49-1.66.58.92.09,2-.48,2.35.27,0,.27-.48.36-.68.48.92.1,1,1.07,2,1a.76.76,0,0,1-.35.17c.12.06.08.36.49-.1l-.2,0c.45-.79,1.65-1,2-1.33-1.37,1.13.18.78-1.61,2.16a1.37,1.37,0,0,0,.69-.48c0,.18-.12.38-.54.63.58.08.9-.51,1.2-.21a5,5,0,0,1-.62.47c.56-.28,1.12-.55,1.21-.11-.14.11-.28.31-.35.23.51.36,1.84-.39,1.94.49-1,.79-.13.47-.88,1.3H47l.27-.49c.22.24,1-.15.94.3l-.5.17.58.26,0-.54c.64-.19,1-1,1.06-.52-.15,0,.22.24-.12.83h0c.37-.14.75-.3.72.07-.2.3-.9.85-1,1.05.77-.56.72.34,1.56-.24a4,4,0,0,0-.69.64l.63-.45c-.07.28-.14.38-.48.7.22.41.89-1.11.84-.3-.07,0-.14.1-.28.13.16.6,1.08.38,1.16,1-.69.9-.5-.11-1.05.68.64.36,2,.08,2.29.75v-.18c1.19-1.05-.2.92.57.64a2.23,2.23,0,0,0-.56.43c.15.51.95.4,1.81.56l-.35.22c-.07.46.36.67.43,1,.36-.22.43-.05.78-.54-1,2.28,2.12.38,1.31,2.32-.08-.07-.42.08-.37.14l.75.24c.46-.53.24-.36.53-.84.35-.23.72-.31.84-.18-.55.09-.8.77-1,1.14.14-.16.34-.29.48-.45-.63,1.12,1.05-.93.8,0l-.28.23c.26,0,.72-.2.79,0-.52.62-.41.12-.89.57.23.17,1.48-.65,1.08.08-.24.07-.37-.05-.61,0-.49.85-.29.71-.26,1v0l0,.64.1-.26c1.75-1.2.77.25,2.09-.35-1.26.56-.6.46-1.28,1.06-.1.26-.18.59-.4.73.69-.34-.16.67.84.16-.21.21.14.19-.43.66.37,0,.32-.4.61-.63,1-.36-.16,1.59,1.28,1.12.79,0,1.58-.58,2.3-.54a1.57,1.57,0,0,1-.88.63c-.12.5.08.6.51.56a1.7,1.7,0,0,0-.53.61c.2.1.88-.62.75-.12a10,10,0,0,1-1,.64c.36,0,.93-.19,1.3-.18-.32.4-.67.41-1,.57a1.64,1.64,0,0,0,1.51-.24l.08-.33c.1.05-.47.51-.63.55-.63.25,0-.45.17-.67h.26c1.13-1.31-.71-.35-.89-.69l1-.74-1,.43c.18-.29.65-.8.92-.8.26-.61-.49.13-.15-.5a.26.26,0,0,1,.17-.14l-.45.06c.22-.14.61-.64.59-.4.2-.83-1.2.09-.63-.69l.08,0c-.76-.19-.71.58-1.83,1l1.42-1.79L63,33c0-.08-.07-.22.22-.45-.63.25-.26.3-.79.6.38-.81-.9-.38.11-1.43-.59.39-.18.59-.77.67,1.07-1.15-.47-.1-.15-.81.65-.5.53,0,.85-.71-1.11.82-.18-.62-.54-.62-.8.74-.71-.08-1.26-.13.28-.24-.12-1-.1-1.54l.14-.12c-.85.71-1,.27-1.35.22a2.34,2.34,0,0,1,1-.68l-.2-.2a.91.91,0,0,1-.7.23l.64-.52c-.29-.24-1.22.14-1.15-.58-.57.52-1.27,1.76-2,1.76.29-.3.78-.81,1-.84-.07,0-.36.14-.29-.05l.64-.35c.07-.36-.5.33-.57.16.43-.41.21-.38.57-.69.07,0-.07.27.14.16a1.39,1.39,0,0,1,.29-1c-.23.25-.57.56-.72.51-.29-.23.42-.58.49-.95-.36.22-.22-.24-.86.37-.07-.08.21-.38.36-.58-.42.14-.71-.55-1.23.26v.08h-.05c-1.06.17-.55-1.28-1.25-1.45l.21-.21c-.5,0-.72-.44-1.36-.17-.08-.08.2-.57.48-.78-.36-.05-.61.17-.56-.47.57-.16.26-.39.48-.06-.08-.44.19-.83-.66-.54.63-.44.48-.87.2-.83l-.2.56c-.22-.06-.29-.22-.37-.39l.77-.65c.31-1.39-2.42.52-1.4-1.33-.63.36-.05.64-.75,1.1-.16-.34.59-1.61.51-1.69,0-.73-1.33.73-1.42.11-.21.3-.83,1-1.32,1-.16-.34.73-1.37,1.09-1.42.08,0,0,.14-.06.23a.56.56,0,0,0,.55-.4l-.28.23c.13-.38-.24-.69.25-1a.5.5,0,0,0-.47.61c0-.68-.49-.49-.58-1.06-.09.19-.33.54-.38.49-.17-.79-.68.28-1.11.08.19-.57,1-.87.32-.86.05-.46.61-.73.89-.86-.78.21-.26-.86-.34-1.12l.35-.06a.33.33,0,0,1-.36-.12l-.4.6c0-.18-.09-.25.12-.47-.42.25-.74.93-1.37,1.21.12-.38-.65-.08,0-.8.17.6.6-.73,1-.53-.14,0-.21-.05-.22-.24a.37.37,0,0,1,.21-.14c.2-1-.91.61-1.29.23.42-.34.61-.82.46-.8.15.16-.53.72-1,.88,0-.54-.49,0-.59-.19l0,.28c-.41.34-.49.17-.78.13.27-.31.35-.06.42-.25-.84.5.22-1.12-.49-.91.12-.38.67-.74.73-1-.78.23.16-.84-.55-.72-.39.61-.26.5-1,.8l.87.12-1,.45c.15.16.64,0,.65.16-.55.28-.42.16-.74.67.51-1-.86.06-.62-.7l1.21-1.3c.15-.93-1.3.05-1.49-.73l0,.37c-.54.46-.37-.21-.73-.14a3.17,3.17,0,0,0,.64-1c-.29.33-.34-.36-1.18.48l.3-.79c-.19-.6-1.59.85-1.84.36.54-.38.64-.85,1.21-1-.13-.13-.17-.31-.45,0,.17-.34-.89.28-.63-.25-.23.15-.66.6-.77.44a1,1,0,0,1,.19-.22c-.19.22-.49.1-.79.7.8-1.74-1.22-.87-.54-2.38a4.16,4.16,0,0,1-1.19-.44c.13-.12.19-.22.2-.13,0-.73-1.31,1.12-1.34.3.4-.92.56-.22.65-.61,1.18-1.55-.67-.21-.24-1.32l.14,0c.19-.69-1,.14-1.27-.25a1.25,1.25,0,0,0,.18-.23,2.72,2.72,0,0,1-2.05.43c.57-.52.4-.2.81-.87-.23,0-.71,1-1.16,1a4.92,4.92,0,0,1,.6-1.56l.34.2c.48-1-.42-.27-.47-.54l.29-.36c-.56-.23-1.26.73-1.72.3l-.15.33c-.94.76.13-.71-.64-.18l.57-1.05a5.85,5.85,0,0,1-1.8.48,6.29,6.29,0,0,1,1.89-1,1,1,0,0,0-1.19,0c.16,0,.45-.2.43,0-.77.62-1.36.8-1.79.56.46-1,.16-1.4-.27-1.64A1.74,1.74,0,0,1,29.3,0a2.09,2.09,0,0,1-.9.24,3.4,3.4,0,0,1-.45,0c-.16-.1-.3,0-.46-.05a3.66,3.66,0,0,0-1,0,2.37,2.37,0,0,0-1,.36c1.1,1.43-.36.24.46,1.88-.2.24-.28.28-.36.18a7.68,7.68,0,0,0-1.33-.44c-.5-.3,0-.52-.21-.85-.71.33-.76-.41-1.4-.54.46.47.39.87,0,.89l.9.37c0,1.25-1.55-.74-1.52.55L21.8,2c-.11.53-1.14,1.1-.3,2.37-.2-.1-.64-.36-.62-.58-.83.58-.08,2.53-1.18,2.51L19.38,6c0,.2.51.72,0,.61-.14-.11-.33-.31-.39-.27s.4.8.06.82l-.31-.44c-.95.34.31,1.72.21,2.42a2.08,2.08,0,0,0-2.13-.33l-.15-.11c-.64.66.07,1.88.05,2.86-1.48-.35-1.45,1.14-2.57,1.42a1.67,1.67,0,0,1,.9.76c-.34,0,.49.94-.53.27l.06,0c-1.08-.5-1,0-1.22.26l1.32.87c-2.39-.51-.4,2.26-2.39,1.58.24.37.11.58.35.95l-.73-.45a1.85,1.85,0,0,0-.87,1.23L10.62,18c-.24.31,1.87,1.66,1.73,2l-1.14-.55c-.32.58-1.63.61-1,1.75-.16-.1-.47-.3-.46-.42-.18.26-1.35.63.22,1.39-1-.55-.43.55-.17,1.1l-.7-.46c.78.79,1,.94,1.09,1.45-.14,0-.63-.25-.38-.26-.54.08.57.61,0,.75l-.4-.39c-.22.27,0,.38.5.85.19.35-.5.46-1.19.14.38.26.84.72.55.8a1,1,0,0,1-.44-.34C8.09,26,9.32,27,8.41,27a1.72,1.72,0,0,0-.47-.18c.23-.39.45-.69.48-.63-.67-.37-1-.11-1.77-.87.37.54,1.25,1.58.76,1.72a.83.83,0,0,1-.26-.08l-.06-.07c-.11,0-.08.13,0,.26-.16,0-.28.06-.34.15-.58-.26-.5.22-.61.37.75.37.52.52,1.24.65-.07,0-.07-.08,0-.2s0-.07,0-.11l.06,0a3.47,3.47,0,0,1,.16-.43c.31.33.56.63,0,.59.44.34.89.69,1.09.86-1.16-.32-1.94-.19-2.62-.46.16.71-.33,1.32.92,2.35.11.23-.48,0-.73-.1-.1-.16,0-.24-.21-.39.22.47-.29.91.67,1.48-.63.13-.81-.66-.9-.09l-.27-.22c-2.07.19,1.75,2.83-.81,2.9a.85.85,0,0,1,.41,0c-1.5.8-.37,2.93-2.37,3.49-.45.21.17.55.56,1l-.85-.3.78.8c.47.82-2.43,0-1.4,1.23l.59.16c-.21.19,0,.89-.62.57.09.07.54.33.21.29l-.44-.18.5.9c-.51.32-1.7-.82-2.07-.2a2.85,2.85,0,0,0,1.29,1.28c.07-.09.39-.13.82.05l.13.32c1.27.59,2.51,1.32,3.64,1.17l-.62-.71.67.15-.09.33c.66.07.19-.26-.11-.54a2,2,0,0,0,.75.14l-1.06-.9c.52.17.92.6,1.3.47-.49-.42-1.19-.32-1.44-.77.66.07,1.11.34.71-.09a1.21,1.21,0,0,1,.64.4c-.32-.36,0-.57-.59-1,.8.13.1-.71,1.3-.15-.26-.19-.8-.76-.77-1,1.3,1,.37-.6,1.87.19-1.19-.82-.19-1.09-.72-1.83.09.07.28.21.2.22.21-.18.63-.06.94-.1-1-.52-1.13-1-1.69-1.49,1.15.2,1.17.75,2.19,1.13-.87-.39-.63-.89-1.39-1.13a3.31,3.31,0,0,1,1.33.27c-1.31-.67-.14-.31-.87-.87.81,0,1.28.51,1,0A1.23,1.23,0,0,1,10.28,38.44ZM12,29.35h0l0,.18Zm.34-.67a.8.8,0,0,0-.18.27c-.27-.11-.52-.28-.47-.34C11.87,28.74,12.1,28.66,12.37,28.68ZM6.45,27.36c0-.17.12-.13.28-.06a.86.86,0,0,0,0,.24l.09.06Z"/><path class="cls-1" d="M7.33,28.07s0,.05,0,.07l.2,0L7.35,28Z"/><path class="cls-1" d="M56.85,25.64v0a.3.3,0,0,1-.06.11Z"/><polygon class="cls-1" points="18.9 20.48 18.72 20.37 18.85 20.53 18.9 20.48"/><path class="cls-1" d="M57.71,30.66a.76.76,0,0,0-.12.19A.78.78,0,0,0,57.71,30.66Z"/><path class="cls-1" d="M58.82,32.09l0,.39A1,1,0,0,0,58.82,32.09Z"/><path class="cls-1" d="M59.48,33.38l.28-.23h0Z"/><path class="cls-1" d="M43.21,18.58h-.07C42.94,18.61,43.05,18.62,43.21,18.58Z"/><path class="cls-1" d="M49.29,21.68a2.57,2.57,0,0,1-.42.14C48.9,22,49,22,49.29,21.68Z"/><path class="cls-1" d="M37.17,14.46h0l0,0Z"/><path class="cls-1" d="M48.66,21.6c0,.2.06.24.21.22C48.84,21.71,48.82,21.57,48.66,21.6Z"/><path class="cls-1" d="M63.31,38l0,.08.11-.09Z"/><path class="cls-1" d="M63.44,38h.12S63.51,37.94,63.44,38Z"/><path class="cls-1" d="M63.82,38l-.26,0S63.62,38.09,63.82,38Z"/><path class="cls-1" d="M62.35,36.41l-.24.19Z"/><path class="cls-1" d="M61.9,36.06c0,.15-.25.69,0,.69l.19-.15C61.72,36.85,62.37,35.8,61.9,36.06Z"/><path class="cls-1" d="M63.05,31.77l.15.51c.18-.28.42-.66.62-.56C64.12,30.62,63.38,32.31,63.05,31.77Z"/><path class="cls-1" d="M62.39,30.39c.28.07.34-.33.48-.45C62.54,30,62.46,30.05,62.39,30.39Z"/><path class="cls-1" d="M55,22.83l.56-.52C55.35,22.25,55.36,22.51,55,22.83Z"/><polygon class="cls-1" points="50.79 24.23 50.58 24.7 51.14 24.26 50.79 24.23"/><polygon class="cls-1" points="53.78 19.5 53.92 19.48 53.49 19.45 53.78 19.5"/><path class="cls-1" d="M40.49,7.53l-.57.76C40.13,8.25,40.84,7.46,40.49,7.53Z"/><path class="cls-1" d="M33.71,3.4c.2-.44.18-.82-.2-.52C33.63,3,33.57,3.45,33.71,3.4Z"/><polygon class="cls-1" points="13.49 14.81 13.3 14.51 13.37 14.9 13.49 14.81"/></g></g></svg>